<?xml version="1.0" encoding="UTF-8"?><svg id="Warstwa_2" xmlns="http://www.w3.org/2000/svg" viewBox="0 0 8285.37 1329.7"><defs><style>.cls-1{fill:#fff;}.cls-2{isolation:isolate;}.cls-3{fill:#8b4646;}</style></defs><g id="Warstwa_1-2"><rect class="cls-1" y="0" width="1329.7" height="1329.7" rx="276.77" ry="276.77"/><rect class="cls-1" x="1736.17" y="0" width="1329.7" height="1329.7" rx="276.77" ry="276.77"/><g><path class="cls-2" d="m165.72,1010.56h11.93v-34.31c0-1.33.04-2.73.12-4.19l-8.47,7.08c-.35.3-.71.5-1.08.61-.37.11-.73.16-1.08.16-.54,0-1.04-.12-1.49-.35s-.78-.5-1-.79l-3.18-4.36,17.95-15.26h8.26v51.41h10.58v7.53h-32.56v-7.53Z"/><path class="cls-2" d="m204.96,1012.56c0-.84.16-1.64.47-2.4s.75-1.41,1.3-1.95c.56-.54,1.21-.98,1.97-1.3.76-.33,1.57-.49,2.44-.49s1.64.16,2.4.49c.76.33,1.41.76,1.95,1.3.54.54.98,1.19,1.3,1.95s.49,1.56.49,2.4-.16,1.68-.49,2.42c-.33.75-.76,1.39-1.3,1.93-.54.54-1.19.97-1.95,1.28-.76.31-1.56.47-2.4.47s-1.68-.16-2.44-.47c-.76-.31-1.42-.74-1.97-1.28-.56-.54-.99-1.19-1.3-1.93-.31-.75-.47-1.55-.47-2.42Z"/><path class="cls-2" d="m236.51,959.23h9.2c.95,0,1.74.22,2.38.67.64.45,1.06,1.05,1.28,1.81l10.01,35.21c.24.87.47,1.81.67,2.83.2,1.02.4,2.1.59,3.24.22-1.14.45-2.22.71-3.24.26-1.02.54-1.96.83-2.83l11.56-35.21c.22-.62.64-1.19,1.28-1.71.64-.52,1.42-.77,2.34-.77h3.22c.95,0,1.74.22,2.36.67.62.45,1.06,1.05,1.3,1.81l11.48,35.21c.6,1.74,1.11,3.66,1.55,5.78.19-1.06.39-2.08.59-3.05.2-.98.41-1.89.63-2.73l10.01-35.21c.19-.68.61-1.26,1.26-1.75.65-.49,1.44-.73,2.36-.73h8.59l-18.28,58.86h-9.89l-12.86-40.22c-.16-.52-.33-1.07-.51-1.67-.18-.6-.35-1.23-.51-1.91-.16.68-.33,1.32-.51,1.91-.18.6-.35,1.15-.51,1.67l-12.99,40.22h-9.89l-18.28-58.86Z"/><path class="cls-2" d="m353.33,995.22v22.88h-10.95v-22.88l-21.45-35.98h9.65c.95,0,1.7.23,2.26.69.56.46,1.02,1.04,1.4,1.75l10.79,19.66c.62,1.17,1.17,2.27,1.63,3.32.46,1.04.88,2.07,1.26,3.07.35-1.03.75-2.07,1.2-3.11.45-1.04.98-2.14,1.61-3.28l10.71-19.66c.3-.6.75-1.15,1.34-1.67.6-.52,1.36-.77,2.28-.77h9.69l-21.41,35.98Z"/><path class="cls-2" d="m411.99,969.94c-.3.6-.65,1.02-1.04,1.26-.39.24-.86.37-1.4.37s-1.15-.21-1.83-.63c-.68-.42-1.48-.89-2.4-1.4-.92-.52-2-.98-3.24-1.4-1.23-.42-2.69-.63-4.38-.63-1.52,0-2.84.18-3.97.55-1.13.37-2.08.88-2.85,1.53s-1.35,1.43-1.73,2.34c-.38.91-.57,1.91-.57,2.99,0,1.38.39,2.54,1.16,3.46.77.92,1.8,1.71,3.07,2.36,1.28.65,2.73,1.24,4.36,1.75,1.63.52,3.29,1.07,4.99,1.65,1.7.58,3.36,1.26,4.99,2.04,1.63.77,3.08,1.75,4.36,2.93,1.28,1.18,2.3,2.63,3.07,4.33.77,1.71,1.16,3.79,1.16,6.23,0,2.66-.45,5.15-1.36,7.47-.91,2.32-2.24,4.34-3.99,6.06-1.75,1.72-3.89,3.08-6.41,4.07-2.52.99-5.41,1.49-8.67,1.49-1.87,0-3.72-.18-5.54-.55-1.82-.37-3.56-.89-5.23-1.57-1.67-.68-3.23-1.49-4.68-2.44-1.45-.95-2.75-2.01-3.89-3.18l3.18-5.25c.3-.38.66-.7,1.08-.96.42-.26.89-.39,1.4-.39.68,0,1.41.28,2.2.83.79.56,1.72,1.17,2.79,1.85,1.07.68,2.33,1.3,3.79,1.85,1.45.56,3.2.83,5.23.83,3.12,0,5.54-.74,7.25-2.22,1.71-1.48,2.56-3.6,2.56-6.37,0-1.55-.39-2.81-1.16-3.79-.77-.98-1.8-1.8-3.07-2.46-1.28-.67-2.73-1.23-4.36-1.69-1.63-.46-3.28-.96-4.97-1.51-1.68-.54-3.34-1.19-4.97-1.95-1.63-.76-3.08-1.75-4.36-2.97-1.28-1.22-2.3-2.75-3.07-4.58-.77-1.83-1.16-4.09-1.16-6.78,0-2.14.43-4.23,1.28-6.27.85-2.04,2.1-3.84,3.75-5.41,1.64-1.57,3.66-2.84,6.04-3.79,2.39-.95,5.11-1.42,8.18-1.42,3.47,0,6.68.54,9.61,1.63,2.93,1.09,5.43,2.61,7.49,4.56l-2.69,5.17Z"/><path class="cls-2" d="m450.29,995.22v22.88h-10.95v-22.88l-21.45-35.98h9.65c.95,0,1.7.23,2.26.69.56.46,1.02,1.04,1.4,1.75l10.79,19.66c.62,1.17,1.17,2.27,1.63,3.32.46,1.04.88,2.07,1.26,3.07.35-1.03.75-2.07,1.2-3.11.45-1.04.98-2.14,1.61-3.28l10.71-19.66c.3-.6.75-1.15,1.34-1.67.6-.52,1.36-.77,2.28-.77h9.69l-21.41,35.98Z"/><path class="cls-2" d="m491.12,982.68l14.57-7.29v7.33c0,1-.45,1.74-1.34,2.2l-13.23,6.88v17.26h23.57v9.04h-34.52v-21.49l-7.33,3.66v-7.53c0-.87.42-1.52,1.26-1.95l6.06-3.13v-28.41h10.95v23.45Z"/><path class="cls-2" d="m573.96,1018.09h-8.47c-.95,0-1.73-.24-2.34-.71-.61-.47-1.05-1.06-1.32-1.77l-4.4-12.01h-24.38l-4.4,12.01c-.22.62-.65,1.19-1.28,1.71-.64.52-1.42.77-2.34.77h-8.51l23.12-58.86h11.19l23.12,58.86Zm-38.1-22.23h18.77l-7.16-19.58c-.33-.87-.69-1.89-1.08-3.07-.39-1.18-.78-2.46-1.16-3.85-.38,1.38-.75,2.67-1.12,3.87-.37,1.19-.73,2.24-1.08,3.13l-7.16,19.5Z"/><path class="cls-2" d="m611.57,969.94c-.3.6-.65,1.02-1.04,1.26-.39.24-.86.37-1.4.37s-1.15-.21-1.83-.63c-.68-.42-1.48-.89-2.4-1.4-.92-.52-2-.98-3.24-1.4-1.23-.42-2.69-.63-4.38-.63-1.52,0-2.84.18-3.97.55-1.13.37-2.08.88-2.85,1.53s-1.35,1.43-1.73,2.34c-.38.91-.57,1.91-.57,2.99,0,1.38.39,2.54,1.16,3.46.77.92,1.8,1.71,3.07,2.36,1.28.65,2.73,1.24,4.36,1.75,1.63.52,3.29,1.07,4.99,1.65,1.7.58,3.36,1.26,4.99,2.04,1.63.77,3.08,1.75,4.36,2.93,1.28,1.18,2.3,2.63,3.07,4.33.77,1.71,1.16,3.79,1.16,6.23,0,2.66-.45,5.15-1.36,7.47-.91,2.32-2.24,4.34-3.99,6.06-1.75,1.72-3.89,3.08-6.41,4.07-2.52.99-5.41,1.49-8.67,1.49-1.87,0-3.72-.18-5.54-.55-1.82-.37-3.56-.89-5.23-1.57-1.67-.68-3.23-1.49-4.68-2.44-1.45-.95-2.75-2.01-3.89-3.18l3.18-5.25c.3-.38.66-.7,1.08-.96.42-.26.89-.39,1.4-.39.68,0,1.41.28,2.2.83.79.56,1.72,1.17,2.79,1.85,1.07.68,2.33,1.3,3.79,1.85,1.45.56,3.2.83,5.23.83,3.12,0,5.54-.74,7.25-2.22,1.71-1.48,2.56-3.6,2.56-6.37,0-1.55-.39-2.81-1.16-3.79-.77-.98-1.8-1.8-3.07-2.46-1.28-.67-2.73-1.23-4.36-1.69-1.63-.46-3.28-.96-4.97-1.51-1.68-.54-3.34-1.19-4.97-1.95-1.63-.76-3.08-1.75-4.36-2.97-1.28-1.22-2.3-2.75-3.07-4.58-.77-1.83-1.16-4.09-1.16-6.78,0-2.14.43-4.23,1.28-6.27.85-2.04,2.1-3.84,3.75-5.41,1.64-1.57,3.66-2.84,6.04-3.79,2.39-.95,5.11-1.42,8.18-1.42,3.47,0,6.68.54,9.61,1.63,2.93,1.09,5.43,2.61,7.49,4.56l-2.69,5.17Z"/><path class="cls-2" d="m665.75,959.23v4.03c0,1.25-.35,2.39-1.06,3.42l-30.2,42.66h30.53v8.75h-44.74v-4.31c0-.54.09-1.06.28-1.57.19-.5.43-.97.73-1.4l30.29-42.86h-29.39v-8.71h43.56Z"/><path class="cls-2" d="m731.69,959.23v4.03c0,1.25-.35,2.39-1.06,3.42l-30.2,42.66h30.53v8.75h-44.74v-4.31c0-.54.09-1.06.28-1.57.19-.5.43-.97.73-1.4l30.29-42.86h-29.39v-8.71h43.56Z"/><path class="cls-2" d="m764.9,1010.03c2.47,0,4.62-.22,6.45-.67,1.83-.45,3.57-1.06,5.23-1.85v-10.71h-7.37c-.71,0-1.26-.2-1.67-.59-.41-.39-.61-.88-.61-1.44v-6.19h19.58v23.81c-1.49,1.09-3.05,2.03-4.66,2.83-1.61.8-3.34,1.46-5.17,1.97-1.83.52-3.79.9-5.88,1.16-2.09.26-4.34.39-6.76.39-4.29,0-8.24-.75-11.85-2.24-3.61-1.49-6.73-3.57-9.36-6.23-2.63-2.66-4.69-5.83-6.17-9.53-1.48-3.69-2.22-7.72-2.22-12.09s.72-8.48,2.16-12.17c1.44-3.69,3.48-6.87,6.13-9.52,2.65-2.66,5.85-4.72,9.63-6.19,3.77-1.47,8-2.2,12.7-2.2s8.96.71,12.48,2.14c3.51,1.42,6.49,3.28,8.94,5.56l-3.18,4.97c-.62,1-1.45,1.51-2.48,1.51-.65,0-1.32-.22-1.99-.65-.87-.52-1.76-1.03-2.67-1.55-.91-.52-1.91-.96-3.01-1.34-1.1-.38-2.33-.69-3.7-.94-1.37-.24-2.95-.37-4.74-.37-2.9,0-5.53.49-7.88,1.47-2.35.98-4.35,2.38-6,4.19-1.66,1.82-2.93,4-3.83,6.55-.9,2.55-1.34,5.4-1.34,8.55,0,3.39.47,6.41,1.42,9.06.95,2.65,2.28,4.88,3.99,6.7,1.71,1.82,3.74,3.21,6.11,4.17,2.36.96,4.94,1.45,7.73,1.45Z"/><path class="cls-2" d="m810.45,982.68l14.57-7.29v7.33c0,1-.45,1.74-1.34,2.2l-13.23,6.88v17.26h23.57v9.04h-34.52v-21.49l-7.33,3.66v-7.53c0-.87.42-1.52,1.26-1.95l6.06-3.13v-28.41h10.95v23.45Z"/><path class="cls-2" d="m898.01,988.66c0,4.31-.72,8.31-2.16,11.99-1.44,3.68-3.46,6.86-6.06,9.55-2.61,2.69-5.74,4.78-9.4,6.29-3.66,1.51-7.72,2.26-12.17,2.26s-8.51-.75-12.19-2.26c-3.68-1.51-6.83-3.6-9.44-6.29-2.62-2.69-4.65-5.87-6.09-9.55-1.44-3.68-2.16-7.67-2.16-11.99s.72-8.31,2.16-11.99c1.44-3.68,3.47-6.86,6.09-9.55,2.62-2.69,5.77-4.78,9.44-6.29,3.68-1.51,7.74-2.26,12.19-2.26s8.51.76,12.17,2.28c3.66,1.52,6.8,3.62,9.4,6.29,2.6,2.67,4.63,5.85,6.06,9.53,1.44,3.68,2.16,7.67,2.16,11.99Zm-11.23,0c0-3.23-.43-6.13-1.28-8.69-.85-2.56-2.08-4.74-3.68-6.53-1.6-1.79-3.55-3.16-5.84-4.11-2.29-.95-4.88-1.42-7.75-1.42s-5.47.48-7.77,1.42c-2.31.95-4.27,2.32-5.88,4.11-1.62,1.79-2.86,3.97-3.72,6.53-.87,2.56-1.3,5.46-1.3,8.69s.43,6.13,1.3,8.69c.87,2.56,2.11,4.74,3.72,6.51,1.61,1.78,3.57,3.14,5.88,4.09,2.31.95,4.9,1.42,7.77,1.42s5.46-.47,7.75-1.42c2.29-.95,4.24-2.31,5.84-4.09,1.6-1.78,2.83-3.95,3.68-6.51.85-2.56,1.28-5.46,1.28-8.69Z"/><path class="cls-2" d="m938.19,969.94c-.3.6-.65,1.02-1.04,1.26-.39.24-.86.37-1.4.37s-1.15-.21-1.83-.63c-.68-.42-1.48-.89-2.4-1.4-.92-.52-2-.98-3.24-1.4-1.23-.42-2.69-.63-4.38-.63-1.52,0-2.84.18-3.97.55-1.13.37-2.08.88-2.85,1.53s-1.35,1.43-1.73,2.34c-.38.91-.57,1.91-.57,2.99,0,1.38.39,2.54,1.16,3.46.77.92,1.8,1.71,3.07,2.36,1.28.65,2.73,1.24,4.36,1.75,1.63.52,3.29,1.07,4.99,1.65,1.7.58,3.36,1.26,4.99,2.04,1.63.77,3.08,1.75,4.36,2.93,1.28,1.18,2.3,2.63,3.07,4.33.77,1.71,1.16,3.79,1.16,6.23,0,2.66-.45,5.15-1.36,7.47-.91,2.32-2.24,4.34-3.99,6.06-1.75,1.72-3.89,3.08-6.41,4.07-2.52.99-5.41,1.49-8.67,1.49-1.87,0-3.72-.18-5.54-.55-1.82-.37-3.56-.89-5.23-1.57-1.67-.68-3.23-1.49-4.68-2.44-1.45-.95-2.75-2.01-3.89-3.18l3.18-5.25c.3-.38.66-.7,1.08-.96.42-.26.89-.39,1.4-.39.68,0,1.41.28,2.2.83.79.56,1.72,1.17,2.79,1.85,1.07.68,2.33,1.3,3.79,1.85,1.45.56,3.2.83,5.23.83,3.12,0,5.54-.74,7.25-2.22,1.71-1.48,2.56-3.6,2.56-6.37,0-1.55-.39-2.81-1.16-3.79-.77-.98-1.8-1.8-3.07-2.46-1.28-.67-2.73-1.23-4.36-1.69-1.63-.46-3.28-.96-4.97-1.51-1.68-.54-3.34-1.19-4.97-1.95-1.63-.76-3.08-1.75-4.36-2.97-1.28-1.22-2.3-2.75-3.07-4.58-.77-1.83-1.16-4.09-1.16-6.78,0-2.14.43-4.23,1.28-6.27.85-2.04,2.1-3.84,3.75-5.41,1.64-1.57,3.66-2.84,6.04-3.79,2.39-.95,5.11-1.42,8.18-1.42,3.47,0,6.68.54,9.61,1.63,2.93,1.09,5.43,2.61,7.49,4.56l-2.69,5.17Z"/><path class="cls-2" d="m992.37,959.23v4.03c0,1.25-.35,2.39-1.06,3.42l-30.2,42.66h30.53v8.75h-44.74v-4.31c0-.54.09-1.06.28-1.57.19-.5.43-.97.73-1.4l30.29-42.86h-29.39v-8.71h43.56Z"/><path class="cls-2" d="m1037.67,959.23v8.71h-26.09v16.32h20.56v8.43h-20.56v16.65h26.09v8.75h-37.12v-58.86h37.12Z"/><path class="cls-2" d="m1054.12,959.29c.33.04.62.12.88.24s.51.3.75.53c.24.23.51.54.81.92l30.9,39.36c-.11-.95-.18-1.88-.22-2.79-.04-.91-.06-1.76-.06-2.54v-35.78h9.65v58.86h-5.66c-.87,0-1.59-.14-2.16-.41-.57-.27-1.13-.76-1.67-1.47l-30.77-39.2c.08.87.14,1.73.18,2.58.04.85.06,1.64.06,2.34v36.15h-9.65v-58.86h5.74c.49,0,.9.02,1.22.06Z"/><path class="cls-2" d="m1121.04,1018.09h-10.99v-58.86h10.99v58.86Z"/><path class="cls-2" d="m1171.39,959.23v8.71h-26.09v16.32h20.56v8.43h-20.56v16.65h26.09v8.75h-37.12v-58.86h37.12Z"/><path class="cls-2" d="m334.26,1056.89h9.19c.95,0,1.74.22,2.38.67.64.45,1.06,1.05,1.28,1.81l10,35.18c.24.87.47,1.81.67,2.83.2,1.02.4,2.09.59,3.23.22-1.14.45-2.22.71-3.23.26-1.02.54-1.96.83-2.83l11.55-35.18c.22-.62.64-1.19,1.28-1.71.64-.51,1.42-.77,2.34-.77h3.21c.95,0,1.73.22,2.36.67.62.45,1.06,1.05,1.3,1.81l11.47,35.18c.6,1.74,1.11,3.66,1.55,5.78.19-1.06.39-2.07.59-3.05.2-.98.41-1.88.63-2.72l10-35.18c.19-.68.61-1.26,1.26-1.75.65-.49,1.44-.73,2.36-.73h8.58l-18.26,58.81h-9.88l-12.85-40.18c-.16-.52-.33-1.07-.51-1.67-.18-.6-.35-1.23-.51-1.91-.16.68-.33,1.32-.51,1.91-.18.6-.35,1.15-.51,1.67l-12.97,40.18h-9.88l-18.26-58.81Z"/><path class="cls-2" d="m477.62,1056.89v8.7h-26.07v17.41h22v8.74h-22v23.96h-11.02v-58.81h37.09Z"/><path class="cls-2" d="m542.61,1086.3c0,4.31-.72,8.3-2.16,11.98-1.44,3.67-3.46,6.85-6.06,9.54-2.6,2.68-5.73,4.78-9.4,6.28-3.66,1.5-7.71,2.26-12.16,2.26s-8.51-.75-12.18-2.26c-3.67-1.5-6.82-3.6-9.44-6.28-2.62-2.68-4.64-5.86-6.08-9.54-1.44-3.67-2.16-7.67-2.16-11.98s.72-8.3,2.16-11.98c1.44-3.67,3.46-6.85,6.08-9.54,2.62-2.68,5.76-4.78,9.44-6.28,3.67-1.5,7.73-2.26,12.18-2.26s8.5.76,12.16,2.28c3.66,1.52,6.79,3.61,9.4,6.28,2.6,2.67,4.62,5.84,6.06,9.52,1.44,3.67,2.16,7.67,2.16,11.98Zm-11.23,0c0-3.23-.43-6.12-1.28-8.68-.85-2.56-2.08-4.74-3.68-6.53-1.6-1.79-3.55-3.16-5.84-4.11-2.29-.95-4.87-1.42-7.75-1.42s-5.46.48-7.77,1.42c-2.31.95-4.26,2.32-5.88,4.11-1.61,1.79-2.85,3.97-3.72,6.53-.87,2.56-1.3,5.46-1.3,8.68s.43,6.12,1.3,8.68c.87,2.56,2.11,4.73,3.72,6.51,1.61,1.78,3.57,3.14,5.88,4.09,2.3.95,4.89,1.42,7.77,1.42s5.46-.47,7.75-1.42c2.29-.95,4.24-2.31,5.84-4.09,1.6-1.78,2.83-3.94,3.68-6.51.85-2.56,1.28-5.46,1.28-8.68Z"/><path class="cls-2" d="m562.54,1092.72v22.98h-10.94v-58.81h17.94c4.01,0,7.45.41,10.31,1.24,2.86.83,5.21,1.99,7.04,3.48,1.83,1.49,3.17,3.27,4.03,5.35s1.28,4.36,1.28,6.85c0,1.98-.29,3.85-.87,5.61-.58,1.76-1.42,3.36-2.52,4.8-1.1,1.44-2.45,2.7-4.07,3.78-1.61,1.08-3.45,1.95-5.51,2.6,1.38.79,2.58,1.91,3.58,3.38l14.72,21.72h-9.84c-.95,0-1.76-.19-2.42-.57-.66-.38-1.23-.92-1.69-1.63l-12.36-18.83c-.46-.71-.97-1.21-1.53-1.5-.56-.3-1.38-.45-2.46-.45h-4.68Zm0-7.85h6.83c2.06,0,3.86-.26,5.39-.77,1.53-.51,2.79-1.23,3.78-2.14.99-.91,1.73-1.99,2.22-3.23.49-1.25.73-2.62.73-4.11,0-2.98-.98-5.27-2.95-6.87-1.97-1.6-4.97-2.4-9.01-2.4h-7v19.52Z"/><path class="cls-2" d="m635.32,1094.01c.39.94.78,1.88,1.16,2.83.38-.98.77-1.94,1.18-2.89.41-.95.84-1.86,1.3-2.73l17.41-32.58c.22-.41.44-.73.67-.98s.49-.42.77-.53c.28-.11.6-.18.96-.2.35-.03.77-.04,1.26-.04h8.26v58.81h-9.64v-37.99c0-.71.02-1.48.06-2.32.04-.84.1-1.69.18-2.56l-17.77,33.35c-.41.76-.94,1.35-1.59,1.77-.65.42-1.41.63-2.28.63h-1.5c-.87,0-1.63-.21-2.28-.63-.65-.42-1.18-1.01-1.59-1.77l-18.02-33.47c.11.9.18,1.77.22,2.62s.06,1.65.06,2.38v37.99h-9.64v-58.81h8.26c.49,0,.91.01,1.26.04.35.03.67.1.96.2.29.11.55.28.79.53s.47.57.69.98l17.57,32.66c.46.87.89,1.77,1.28,2.7Z"/><path class="cls-2" d="m703.83,1106.88c2.11,0,4.01-.35,5.67-1.06,1.67-.7,3.08-1.69,4.23-2.97,1.15-1.27,2.03-2.82,2.64-4.64.61-1.82.92-3.85.92-6.1v-35.22h10.94v35.22c0,3.5-.56,6.73-1.69,9.7-1.13,2.97-2.75,5.53-4.86,7.69-2.11,2.16-4.68,3.84-7.69,5.04-3.01,1.21-6.4,1.81-10.17,1.81s-7.16-.6-10.17-1.81-5.57-2.89-7.67-5.04c-2.1-2.16-3.72-4.72-4.84-7.69-1.13-2.97-1.69-6.2-1.69-9.7v-35.22h10.94v35.18c0,2.25.31,4.28.92,6.1.61,1.82,1.48,3.37,2.62,4.66,1.14,1.29,2.54,2.28,4.21,2.99,1.67.71,3.56,1.06,5.67,1.06Z"/><path class="cls-2" d="m750.32,1106.68h23.55v9.03h-34.49v-58.81h10.94v49.78Z"/><path class="cls-2" d="m833.13,1115.7h-8.46c-.95,0-1.73-.24-2.34-.71-.61-.47-1.05-1.06-1.32-1.77l-4.39-12h-24.36l-4.39,12c-.22.62-.64,1.19-1.28,1.71-.64.52-1.42.77-2.34.77h-8.5l23.1-58.81h11.18l23.1,58.81Zm-38.07-22.21h18.75l-7.16-19.56c-.33-.87-.69-1.89-1.08-3.07-.39-1.18-.78-2.46-1.16-3.84-.38,1.38-.75,2.67-1.12,3.86-.37,1.19-.73,2.24-1.08,3.13l-7.16,19.48Z"/><path class="cls-2" d="m850.49,1092.72v22.98h-10.94v-58.81h17.94c4.01,0,7.45.41,10.31,1.24,2.86.83,5.21,1.99,7.04,3.48,1.83,1.49,3.17,3.27,4.03,5.35s1.28,4.36,1.28,6.85c0,1.98-.29,3.85-.87,5.61-.58,1.76-1.42,3.36-2.52,4.8-1.1,1.44-2.45,2.7-4.07,3.78-1.61,1.08-3.45,1.95-5.51,2.6,1.38.79,2.58,1.91,3.58,3.38l14.72,21.72h-9.84c-.95,0-1.76-.19-2.42-.57-.66-.38-1.23-.92-1.69-1.63l-12.36-18.83c-.46-.71-.97-1.21-1.53-1.5-.56-.3-1.38-.45-2.46-.45h-4.68Zm0-7.85h6.83c2.06,0,3.86-.26,5.39-.77,1.53-.51,2.79-1.23,3.78-2.14.99-.91,1.73-1.99,2.22-3.23.49-1.25.73-2.62.73-4.11,0-2.98-.98-5.27-2.95-6.87-1.97-1.6-4.97-2.4-9.01-2.4h-7v19.52Z"/><path class="cls-2" d="m934.48,1056.89v4.03c0,1.25-.35,2.39-1.06,3.42l-30.18,42.62h30.5v8.74h-44.7v-4.31c0-.54.09-1.06.28-1.57.19-.5.43-.97.73-1.4l30.26-42.83h-29.36v-8.7h43.52Z"/><path class="cls-2" d="m966.32,1106.88c2.11,0,4.01-.35,5.67-1.06,1.67-.7,3.08-1.69,4.23-2.97,1.15-1.27,2.03-2.82,2.64-4.64.61-1.82.92-3.85.92-6.1v-35.22h10.94v35.22c0,3.5-.56,6.73-1.69,9.7-1.13,2.97-2.75,5.53-4.86,7.69-2.11,2.16-4.68,3.84-7.69,5.04-3.01,1.21-6.4,1.81-10.17,1.81s-7.16-.6-10.17-1.81-5.57-2.89-7.67-5.04c-2.1-2.16-3.72-4.72-4.84-7.69-1.13-2.97-1.69-6.2-1.69-9.7v-35.22h10.94v35.18c0,2.25.31,4.28.92,6.1.61,1.82,1.48,3.37,2.62,4.66,1.14,1.29,2.54,2.28,4.21,2.99,1.67.71,3.56,1.06,5.67,1.06Z"/></g><g><path class="cls-2" d="m2056.06,958.58c2.71,0,5.2.4,7.45,1.2,2.25.8,4.18,1.93,5.78,3.4,1.6,1.47,2.85,3.23,3.75,5.29.9,2.06,1.34,4.36,1.34,6.88,0,2.17-.32,4.18-.96,6.02-.64,1.85-1.49,3.61-2.56,5.29-1.07,1.68-2.33,3.31-3.77,4.88-1.44,1.57-2.94,3.17-4.52,4.8l-13.27,13.56c1.3-.38,2.58-.67,3.83-.88s2.44-.31,3.58-.31h15.1c1.08,0,1.95.31,2.58.92.64.61.96,1.42.96,2.42v6.02h-40.38v-3.34c0-.68.14-1.38.43-2.12s.74-1.41,1.36-2.04l17.87-17.91c1.49-1.52,2.83-2.97,4.01-4.36,1.18-1.38,2.17-2.75,2.97-4.11.8-1.36,1.41-2.73,1.83-4.13.42-1.4.63-2.87.63-4.42,0-1.41-.2-2.65-.61-3.72-.41-1.07-.99-1.97-1.75-2.71-.76-.73-1.66-1.28-2.71-1.65s-2.22-.55-3.52-.55c-2.42,0-4.4.61-5.96,1.83s-2.65,2.86-3.28,4.93c-.3,1.03-.75,1.77-1.34,2.22s-1.36.67-2.28.67c-.41,0-.85-.04-1.34-.12l-5.29-.94c.41-2.82,1.19-5.3,2.36-7.43s2.63-3.91,4.38-5.33c1.75-1.42,3.76-2.5,6.02-3.22,2.27-.72,4.7-1.08,7.31-1.08Z"/><path class="cls-2" d="m2081.75,1012.56c0-.84.16-1.64.47-2.4.31-.76.75-1.41,1.3-1.95.56-.54,1.21-.98,1.97-1.3.76-.33,1.57-.49,2.44-.49s1.64.16,2.4.49c.76.33,1.41.76,1.95,1.3.54.54.98,1.19,1.3,1.95.33.76.49,1.56.49,2.4s-.16,1.68-.49,2.42c-.33.75-.76,1.39-1.3,1.93-.54.54-1.19.97-1.95,1.28-.76.31-1.56.47-2.4.47s-1.68-.16-2.44-.47c-.76-.31-1.42-.74-1.97-1.28-.56-.54-.99-1.19-1.3-1.93-.31-.75-.47-1.55-.47-2.42Z"/><path class="cls-2" d="m2142.44,1009.26c2.12,0,4.01-.35,5.68-1.06,1.67-.71,3.08-1.7,4.23-2.97,1.15-1.27,2.04-2.82,2.65-4.64.61-1.82.92-3.85.92-6.11v-35.25h10.95v35.25c0,3.5-.56,6.74-1.69,9.71-1.13,2.97-2.75,5.54-4.86,7.69-2.12,2.16-4.68,3.84-7.69,5.05-3.01,1.21-6.41,1.81-10.18,1.81s-7.16-.6-10.18-1.81c-3.01-1.21-5.57-2.89-7.67-5.05-2.1-2.16-3.72-4.72-4.84-7.69-1.13-2.97-1.69-6.21-1.69-9.71v-35.25h10.95v35.21c0,2.25.31,4.29.92,6.11.61,1.82,1.49,3.37,2.63,4.66,1.14,1.29,2.54,2.29,4.21,2.99,1.67.71,3.56,1.06,5.68,1.06Z"/><path class="cls-2" d="m2209.56,969.94c-.3.6-.65,1.02-1.04,1.26-.39.24-.86.37-1.4.37s-1.15-.21-1.83-.63c-.68-.42-1.48-.89-2.4-1.4-.92-.52-2-.98-3.24-1.4-1.24-.42-2.69-.63-4.38-.63-1.52,0-2.84.18-3.97.55-1.13.37-2.08.88-2.85,1.53s-1.35,1.43-1.73,2.34c-.38.91-.57,1.91-.57,2.99,0,1.38.39,2.54,1.16,3.46.77.92,1.8,1.71,3.07,2.36,1.28.65,2.73,1.24,4.36,1.75,1.63.52,3.29,1.07,4.99,1.65,1.7.58,3.36,1.26,4.99,2.04,1.63.77,3.08,1.75,4.36,2.93s2.3,2.63,3.07,4.33c.77,1.71,1.16,3.79,1.16,6.23,0,2.66-.45,5.15-1.36,7.47s-2.24,4.34-3.99,6.06c-1.75,1.72-3.89,3.08-6.41,4.07s-5.41,1.49-8.67,1.49c-1.87,0-3.72-.18-5.54-.55-1.82-.37-3.56-.89-5.23-1.57-1.67-.68-3.23-1.49-4.68-2.44-1.45-.95-2.75-2.01-3.89-3.18l3.18-5.25c.3-.38.66-.7,1.08-.96.42-.26.89-.39,1.4-.39.68,0,1.41.28,2.2.83.79.56,1.72,1.17,2.79,1.85,1.07.68,2.33,1.3,3.79,1.85,1.45.56,3.2.83,5.23.83,3.12,0,5.54-.74,7.25-2.22,1.71-1.48,2.56-3.6,2.56-6.37,0-1.55-.39-2.81-1.16-3.79-.77-.98-1.8-1.8-3.07-2.46-1.28-.67-2.73-1.23-4.36-1.69-1.63-.46-3.28-.96-4.97-1.51-1.68-.54-3.34-1.19-4.97-1.95-1.63-.76-3.08-1.75-4.36-2.97-1.28-1.22-2.3-2.75-3.07-4.58-.77-1.83-1.16-4.09-1.16-6.78,0-2.14.43-4.23,1.28-6.27s2.1-3.84,3.75-5.41c1.64-1.57,3.66-2.84,6.04-3.79,2.39-.95,5.11-1.42,8.18-1.42,3.47,0,6.68.54,9.61,1.63,2.93,1.09,5.43,2.61,7.49,4.56l-2.69,5.17Z"/><path class="cls-2" d="m2263.17,959.23v9h-17.71v49.86h-10.95v-49.86h-17.79v-9h46.45Z"/><path class="cls-2" d="m2315.89,1018.09h-8.47c-.95,0-1.73-.24-2.34-.71-.61-.47-1.05-1.06-1.32-1.77l-4.4-12.01h-24.38l-4.4,12.01c-.22.62-.64,1.19-1.28,1.71-.64.52-1.42.77-2.34.77h-8.51l23.12-58.86h11.19l23.12,58.86Zm-38.1-22.23h18.77l-7.16-19.58c-.33-.87-.69-1.89-1.08-3.07-.39-1.18-.78-2.46-1.16-3.85-.38,1.38-.75,2.67-1.12,3.87-.37,1.19-.73,2.24-1.08,3.13l-7.16,19.5Z"/><path class="cls-2" d="m2332.9,1009.06h23.57v9.04h-34.52v-58.86h10.95v49.82Z"/><path class="cls-2" d="m2415.78,1018.09h-8.47c-.95,0-1.73-.24-2.34-.71-.61-.47-1.05-1.06-1.32-1.77l-4.4-12.01h-24.38l-4.4,12.01c-.22.62-.64,1.19-1.28,1.71-.64.52-1.42.77-2.34.77h-8.51l23.12-58.86h11.19l23.12,58.86Zm-38.1-22.23h18.77l-7.16-19.58c-.33-.87-.69-1.89-1.08-3.07-.39-1.18-.78-2.46-1.16-3.85-.38,1.38-.75,2.67-1.12,3.87-.37,1.19-.73,2.24-1.08,3.13l-7.16,19.5Z"/><path class="cls-2" d="m2452.68,996.38c.39.94.78,1.88,1.16,2.83.38-.98.77-1.94,1.18-2.89.41-.95.84-1.86,1.3-2.73l17.42-32.61c.22-.41.44-.73.67-.98.23-.24.49-.42.77-.53.28-.11.6-.18.96-.2.35-.03.77-.04,1.26-.04h8.26v58.86h-9.65v-38.02c0-.71.02-1.48.06-2.32.04-.84.1-1.7.18-2.56l-17.79,33.38c-.41.76-.94,1.35-1.59,1.77-.65.42-1.41.63-2.28.63h-1.51c-.87,0-1.63-.21-2.28-.63-.65-.42-1.18-1.01-1.59-1.77l-18.03-33.5c.11.9.18,1.77.22,2.63.04.85.06,1.65.06,2.38v38.02h-9.65v-58.86h8.26c.49,0,.91.01,1.26.04.35.03.67.1.96.2s.55.28.79.53c.24.24.47.57.69.98l17.58,32.69c.46.87.89,1.77,1.28,2.71Z"/><path class="cls-2" d="m2523.73,995.22v22.88h-10.95v-22.88l-21.45-35.98h9.65c.95,0,1.7.23,2.26.69.56.46,1.02,1.04,1.4,1.75l10.79,19.66c.62,1.17,1.17,2.27,1.63,3.32.46,1.04.88,2.07,1.26,3.07.35-1.03.75-2.07,1.2-3.11.45-1.04.98-2.14,1.61-3.28l10.71-19.66c.3-.6.75-1.15,1.34-1.67.6-.52,1.36-.77,2.28-.77h9.69l-21.41,35.98Z"/><path class="cls-2" d="m2607.01,1004.21c.6,0,1.11.23,1.55.69l4.31,4.68c-2.39,2.96-5.33,5.22-8.81,6.8-3.49,1.57-7.67,2.36-12.56,2.36-4.37,0-8.3-.75-11.78-2.24-3.49-1.49-6.47-3.57-8.94-6.23-2.47-2.66-4.36-5.83-5.68-9.53-1.32-3.69-1.97-7.72-1.97-12.09s.73-8.47,2.2-12.15c1.47-3.68,3.53-6.84,6.19-9.5s5.84-4.73,9.54-6.21c3.7-1.48,7.8-2.22,12.27-2.22s8.19.7,11.46,2.1c3.27,1.4,6.07,3.25,8.41,5.56l-3.66,5.09c-.22.33-.5.61-.83.85-.34.24-.81.37-1.4.37s-1.26-.24-1.91-.73c-.65-.49-1.48-1.02-2.48-1.59s-2.27-1.1-3.81-1.59c-1.53-.49-3.48-.73-5.84-.73-2.77,0-5.31.48-7.63,1.45-2.32.96-4.32,2.34-5.98,4.13s-2.97,3.97-3.91,6.53-1.4,5.45-1.4,8.65.47,6.26,1.4,8.83c.94,2.58,2.2,4.75,3.81,6.51s3.49,3.11,5.66,4.05c2.17.94,4.5,1.4,7,1.4,1.49,0,2.84-.08,4.05-.24,1.21-.16,2.32-.42,3.34-.77,1.02-.35,1.98-.81,2.89-1.36s1.81-1.24,2.71-2.06c.27-.24.56-.44.86-.59s.62-.22.98-.22Z"/><path class="cls-2" d="m2658.26,959.23v8.71h-26.09v16.32h20.56v8.43h-20.56v16.65h26.09v8.75h-37.12v-58.86h37.12Z"/><path class="cls-2" d="m2674.71,959.29c.33.04.62.12.88.24s.51.3.75.53c.24.23.51.54.81.92l30.9,39.36c-.11-.95-.18-1.88-.22-2.79-.04-.91-.06-1.76-.06-2.54v-35.78h9.65v58.86h-5.66c-.87,0-1.59-.14-2.16-.41-.57-.27-1.13-.76-1.67-1.47l-30.77-39.2c.08.87.14,1.73.18,2.58.04.85.06,1.64.06,2.34v36.15h-9.65v-58.86h5.74c.49,0,.9.02,1.22.06Z"/><path class="cls-2" d="m2764.34,1025.7c.49,0,.8.22.94.65l1.55,3.7c-.9.6-2.01,1.09-3.36,1.49-1.34.39-2.76.59-4.25.59-2.66,0-4.71-.56-6.15-1.67-1.44-1.11-2.16-2.55-2.16-4.31,0-1.49.5-2.93,1.49-4.31.99-1.38,2.41-2.63,4.25-3.75h-27.35v-58.86h37.12v8.71h-26.09v16.32h20.56v8.43h-20.56v16.65h26.09v8.75h-3.7c-.54.3-1.07.64-1.59,1.02-.52.38-.98.81-1.38,1.28-.41.47-.73.98-.98,1.53-.24.54-.37,1.11-.37,1.71,0,.81.26,1.46.77,1.93.51.47,1.23.71,2.16.71.51,0,.94-.03,1.26-.08.33-.05.59-.12.79-.2.2-.08.38-.15.53-.2.15-.05.29-.08.43-.08Z"/><path class="cls-2" d="m2011.68,1115.79h-10.99v-58.86h10.99v58.86Z"/><path class="cls-2" d="m2082.09,1056.93v9h-17.71v49.86h-10.95v-49.86h-17.79v-9h46.45Z"/><path class="cls-2" d="m2126.18,1056.93v8.71h-26.09v16.32h20.56v8.43h-20.56v16.65h26.09v8.75h-37.12v-58.86h37.12Z"/><path class="cls-2" d="m2146.98,1092.79v23h-10.95v-58.86h17.95c4.02,0,7.46.41,10.32,1.24,2.86.83,5.21,1.99,7.04,3.48,1.83,1.49,3.18,3.28,4.03,5.35.85,2.08,1.28,4.36,1.28,6.86,0,1.98-.29,3.85-.88,5.62-.58,1.76-1.42,3.37-2.52,4.8-1.1,1.44-2.46,2.7-4.07,3.79-1.61,1.09-3.45,1.95-5.52,2.6,1.38.79,2.58,1.91,3.58,3.38l14.74,21.74h-9.85c-.95,0-1.76-.19-2.42-.57-.67-.38-1.23-.92-1.69-1.63l-12.37-18.85c-.46-.71-.97-1.21-1.53-1.51-.56-.3-1.38-.45-2.46-.45h-4.68Zm0-7.86h6.84c2.06,0,3.86-.26,5.39-.77,1.53-.52,2.79-1.23,3.79-2.14.99-.91,1.73-1.99,2.22-3.24.49-1.25.73-2.62.73-4.11,0-2.98-.98-5.28-2.95-6.88-1.97-1.6-4.97-2.4-9.02-2.4h-7v19.54Z"/><path class="cls-2" d="m2219.82,1094.07c.39.94.78,1.88,1.16,2.83.38-.98.77-1.94,1.18-2.89.41-.95.84-1.86,1.3-2.73l17.42-32.61c.22-.41.44-.73.67-.98.23-.24.49-.42.77-.53s.6-.18.96-.2c.35-.03.77-.04,1.26-.04h8.26v58.86h-9.65v-38.02c0-.71.02-1.48.06-2.32.04-.84.1-1.7.18-2.56l-17.79,33.38c-.41.76-.94,1.35-1.59,1.77-.65.42-1.41.63-2.28.63h-1.51c-.87,0-1.63-.21-2.28-.63-.65-.42-1.18-1.01-1.59-1.77l-18.03-33.5c.11.9.18,1.77.22,2.63.04.85.06,1.65.06,2.38v38.02h-9.65v-58.86h8.26c.49,0,.91.01,1.26.04.35.03.67.1.96.2s.55.28.79.53c.24.24.47.57.69.98l17.58,32.69c.46.87.89,1.77,1.28,2.71Z"/><path class="cls-2" d="m2277.03,1115.79h-10.99v-58.86h10.99v58.86Z"/><path class="cls-2" d="m2297.22,1056.99c.33.04.62.12.88.24.26.12.51.3.75.53.24.23.52.54.81.92l30.9,39.36c-.11-.95-.18-1.88-.22-2.79-.04-.91-.06-1.76-.06-2.54v-35.78h9.65v58.86h-5.66c-.87,0-1.59-.14-2.16-.41-.57-.27-1.13-.76-1.67-1.47l-30.77-39.2c.08.87.14,1.73.18,2.58.04.85.06,1.64.06,2.34v36.15h-9.65v-58.86h5.74c.49,0,.9.02,1.22.06Z"/><path class="cls-2" d="m2378.84,1092.79v23h-10.95v-58.86h17.95c4.02,0,7.46.41,10.32,1.24,2.86.83,5.21,1.99,7.04,3.48,1.83,1.49,3.17,3.28,4.03,5.35.86,2.08,1.28,4.36,1.28,6.86,0,1.98-.29,3.85-.88,5.62-.58,1.76-1.42,3.37-2.52,4.8-1.1,1.44-2.46,2.7-4.07,3.79-1.62,1.09-3.45,1.95-5.52,2.6,1.38.79,2.58,1.91,3.58,3.38l14.74,21.74h-9.85c-.95,0-1.76-.19-2.42-.57-.67-.38-1.23-.92-1.69-1.63l-12.38-18.85c-.46-.71-.97-1.21-1.53-1.51-.56-.3-1.38-.45-2.46-.45h-4.68Zm0-7.86h6.84c2.06,0,3.86-.26,5.39-.77,1.53-.52,2.79-1.23,3.79-2.14.99-.91,1.73-1.99,2.22-3.24.49-1.25.73-2.62.73-4.11,0-2.98-.98-5.28-2.95-6.88-1.97-1.6-4.97-2.4-9.02-2.4h-7v19.54Z"/><path class="cls-2" d="m2457.97,1056.93v8.71h-26.09v16.32h20.56v8.43h-20.56v16.65h26.09v8.75h-37.12v-58.86h37.12Z"/><path class="cls-2" d="m2519.19,1115.79h-8.47c-.95,0-1.73-.24-2.34-.71-.61-.47-1.05-1.06-1.32-1.77l-4.4-12.01h-24.38l-4.4,12.01c-.22.62-.65,1.19-1.28,1.71-.64.52-1.42.77-2.34.77h-8.51l23.12-58.86h11.19l23.12,58.86Zm-38.1-22.23h18.76l-7.16-19.58c-.33-.87-.69-1.89-1.08-3.07-.39-1.18-.78-2.46-1.16-3.85-.38,1.38-.75,2.67-1.12,3.87-.37,1.19-.73,2.24-1.08,3.13l-7.16,19.5Z"/><path class="cls-2" d="m2536.21,1106.75h23.57v9.04h-34.52v-58.86h10.95v49.82Z"/><path class="cls-2" d="m2579.68,1115.79h-10.99v-58.86h10.99v58.86Z"/><path class="cls-2" d="m2634.96,1056.93v4.03c0,1.25-.35,2.39-1.06,3.42l-30.2,42.66h30.53v8.75h-44.74v-4.31c0-.54.09-1.06.29-1.57.19-.5.43-.97.73-1.4l30.29-42.86h-29.39v-8.71h43.56Z"/><path class="cls-2" d="m2694.88,1115.79h-8.47c-.95,0-1.73-.24-2.34-.71-.61-.47-1.05-1.06-1.32-1.77l-4.4-12.01h-24.38l-4.4,12.01c-.22.62-.65,1.19-1.28,1.71-.64.52-1.42.77-2.34.77h-8.51l23.12-58.86h11.19l23.12,58.86Zm-38.1-22.23h18.76l-7.16-19.58c-.33-.87-.69-1.89-1.08-3.07-.39-1.18-.78-2.46-1.16-3.85-.38,1.38-.75,2.67-1.12,3.87-.37,1.19-.73,2.24-1.08,3.13l-7.16,19.5Z"/><path class="cls-2" d="m2739.33,1101.91c.6,0,1.11.23,1.55.69l4.31,4.68c-2.39,2.96-5.33,5.22-8.81,6.8-3.49,1.57-7.67,2.36-12.56,2.36-4.37,0-8.3-.75-11.78-2.24-3.49-1.49-6.47-3.57-8.94-6.23-2.47-2.66-4.36-5.83-5.68-9.53-1.32-3.69-1.97-7.72-1.97-12.09s.73-8.47,2.2-12.15c1.47-3.68,3.53-6.84,6.19-9.5s5.84-4.73,9.54-6.21c3.7-1.48,7.8-2.22,12.27-2.22s8.19.7,11.46,2.1c3.27,1.4,6.07,3.25,8.41,5.56l-3.66,5.09c-.22.33-.5.61-.83.85-.34.24-.81.37-1.4.37s-1.26-.24-1.91-.73c-.65-.49-1.48-1.02-2.48-1.59s-2.27-1.1-3.81-1.59c-1.53-.49-3.48-.73-5.84-.73-2.77,0-5.31.48-7.63,1.45-2.32.96-4.32,2.34-5.98,4.13s-2.97,3.97-3.91,6.53-1.4,5.45-1.4,8.65.47,6.26,1.4,8.83c.94,2.58,2.2,4.75,3.81,6.51s3.49,3.11,5.66,4.05c2.17.94,4.5,1.4,7,1.4,1.49,0,2.84-.08,4.05-.24,1.21-.16,2.32-.42,3.34-.77,1.02-.35,1.98-.81,2.89-1.36s1.81-1.24,2.71-2.06c.27-.24.56-.44.86-.59s.62-.22.98-.22Z"/><path class="cls-2" d="m2777.14,1094.86c0,3.31-.41,6.3-1.22,8.96-.81,2.66-2.03,4.93-3.64,6.8-1.61,1.87-3.63,3.31-6.04,4.31-2.42,1-5.22,1.51-8.43,1.51-1.47,0-2.9-.09-4.31-.26-1.41-.18-2.89-.45-4.44-.83l.57-6.51c.05-.6.28-1.08.67-1.44.39-.37.97-.55,1.73-.55.46,0,1.06.1,1.81.28.75.19,1.69.29,2.83.29,1.55,0,2.92-.22,4.11-.67,1.19-.45,2.19-1.16,2.99-2.14.8-.98,1.4-2.25,1.81-3.81.41-1.56.61-3.45.61-5.68v-38.18h10.95v37.94Z"/><path class="cls-2" d="m2801.36,1115.79h-10.99v-58.86h10.99v58.86Z"/></g><path class="cls-3" d="m1449.94,763.57v-197.44l170.99,98.72-170.99,98.72Zm10-180.12v162.8l140.99-81.4-140.99-81.4Z"/><g><path class="cls-3" d="m1012.78,761.2H316.92c-13.15,0-23.82-10.66-23.82-23.82v-401.78c0-13.15,10.66-23.82,23.82-23.82h695.86c13.15,0,23.82,10.66,23.82,23.82v401.78c0,13.15-10.66,23.82-23.82,23.82Zm-648.22-47.63h600.59c13.15,0,23.82-10.66,23.82-23.82v-306.51c0-13.15-10.66-23.82-23.82-23.82H364.56c-13.15,0-23.82,10.66-23.82,23.82v306.51c0,13.15,10.66,23.82,23.82,23.82Z"/><path class="cls-3" d="m652.94,557.12l-327.3-188.98c-11.39-6.58-15.29-21.14-8.72-32.53h0c6.58-11.39,21.14-15.29,32.53-8.72l303.48,175.23c7.37,4.25,16.45,4.25,23.82,0l303.49-175.23c11.39-6.58,25.96-2.67,32.53,8.72h0c6.58,11.39,2.67,25.96-8.72,32.53l-327.3,188.98c-7.37,4.25-16.45,4.25-23.82,0Z"/></g><rect class="cls-1" x="3476" y="0" width="1329.7" height="1329.7" rx="276.77" ry="276.77"/><g><path class="cls-2" d="m3814.99,958.58c2.71,0,5.16.39,7.35,1.16,2.18.77,4.05,1.85,5.6,3.22,1.55,1.37,2.73,2.98,3.56,4.82.83,1.85,1.24,3.84,1.24,5.98,0,1.87-.21,3.52-.63,4.95s-1.03,2.67-1.83,3.72c-.8,1.06-1.78,1.95-2.93,2.69-1.15.73-2.46,1.34-3.93,1.83,3.53,1.11,6.16,2.81,7.9,5.09,1.74,2.28,2.61,5.14,2.61,8.59,0,2.93-.54,5.52-1.63,7.77-1.09,2.25-2.55,4.15-4.4,5.68-1.85,1.53-3.98,2.69-6.41,3.48-2.43.79-5,1.18-7.71,1.18-2.96,0-5.54-.34-7.73-1.02-2.2-.68-4.11-1.68-5.74-3.01s-3.01-2.96-4.15-4.88c-1.14-1.93-2.12-4.15-2.93-6.68l4.44-1.83c.76-.33,1.53-.49,2.32-.49.71,0,1.34.15,1.89.45.56.3.98.73,1.28,1.3.49.95,1.02,1.89,1.61,2.81.58.92,1.28,1.74,2.1,2.46.81.72,1.77,1.3,2.87,1.75,1.1.45,2.41.67,3.93.67,1.71,0,3.2-.28,4.48-.83,1.28-.56,2.34-1.28,3.2-2.18s1.49-1.89,1.91-2.99c.42-1.1.63-2.2.63-3.32,0-1.41-.15-2.69-.45-3.85-.3-1.15-.92-2.14-1.87-2.95s-2.31-1.45-4.09-1.91c-1.78-.46-4.16-.69-7.14-.69v-7.21c2.47,0,4.52-.22,6.15-.65,1.63-.43,2.92-1.04,3.89-1.81.96-.77,1.63-1.7,2.01-2.79.38-1.08.57-2.28.57-3.58,0-2.79-.76-4.91-2.28-6.33s-3.6-2.14-6.23-2.14c-2.39,0-4.37.63-5.94,1.89s-2.67,2.88-3.3,4.86c-.33,1.03-.77,1.77-1.34,2.22-.57.45-1.32.67-2.24.67-.43,0-.9-.04-1.38-.12l-5.29-.92c.41-2.82,1.19-5.3,2.36-7.43s2.63-3.91,4.38-5.33c1.75-1.42,3.76-2.5,6.02-3.22s4.7-1.08,7.31-1.08Z"/><path class="cls-2" d="m3839.74,1012.56c0-.84.16-1.64.47-2.4.31-.76.75-1.41,1.3-1.95.56-.54,1.21-.98,1.97-1.3.76-.33,1.57-.49,2.44-.49s1.64.16,2.4.49c.76.33,1.41.76,1.95,1.3.54.54.98,1.19,1.3,1.95.33.76.49,1.56.49,2.4s-.16,1.68-.49,2.42c-.33.75-.76,1.39-1.3,1.93-.54.54-1.19.97-1.95,1.28-.76.31-1.56.47-2.4.47s-1.68-.16-2.44-.47c-.76-.31-1.42-.74-1.97-1.28-.56-.54-.99-1.19-1.3-1.93-.31-.75-.47-1.55-.47-2.42Z"/><path class="cls-2" d="m3918.79,959.23v4.03c0,1.25-.35,2.39-1.06,3.42l-30.2,42.66h30.53v8.75h-44.74v-4.31c0-.54.09-1.06.28-1.57.19-.5.43-.97.73-1.4l30.29-42.86h-29.39v-8.71h43.55Z"/><path class="cls-2" d="m3978.7,1018.09h-8.47c-.95,0-1.73-.24-2.34-.71-.61-.47-1.05-1.06-1.32-1.77l-4.4-12.01h-24.38l-4.4,12.01c-.22.62-.64,1.19-1.28,1.71-.64.52-1.42.77-2.34.77h-8.51l23.12-58.86h11.19l23.12,58.86Zm-38.1-22.23h18.77l-7.16-19.58c-.33-.87-.69-1.89-1.08-3.07-.39-1.18-.78-2.46-1.16-3.85-.38,1.38-.75,2.67-1.12,3.87-.37,1.19-.73,2.24-1.08,3.13l-7.16,19.5Z"/><path class="cls-2" d="m4020.27,959.23v9h-17.71v49.86h-10.95v-49.86h-17.79v-9h46.45Z"/><path class="cls-2" d="m4021.77,959.23h9.2c.95,0,1.74.22,2.38.67s1.06,1.05,1.28,1.81l10.01,35.21c.24.87.47,1.81.67,2.83s.4,2.1.59,3.24c.22-1.14.45-2.22.71-3.24.26-1.02.54-1.96.83-2.83l11.56-35.21c.22-.62.64-1.19,1.28-1.71.64-.52,1.42-.77,2.34-.77h3.22c.95,0,1.74.22,2.36.67s1.06,1.05,1.3,1.81l11.48,35.21c.6,1.74,1.11,3.66,1.55,5.78.19-1.06.39-2.08.59-3.05.2-.98.41-1.89.63-2.73l10.01-35.21c.19-.68.61-1.26,1.26-1.75.65-.49,1.44-.73,2.36-.73h8.59l-18.28,58.86h-9.89l-12.86-40.22c-.16-.52-.33-1.07-.51-1.67-.18-.6-.35-1.23-.51-1.91-.16.68-.33,1.32-.51,1.91-.18.6-.35,1.15-.51,1.67l-12.99,40.22h-9.89l-18.28-58.86Z"/><path class="cls-2" d="m4124.76,1018.09h-10.99v-58.86h10.99v58.86Z"/><path class="cls-2" d="m4175.11,959.23v8.71h-26.09v16.32h20.56v8.43h-20.56v16.65h26.09v8.75h-37.12v-58.86h37.12Z"/><path class="cls-2" d="m4195.91,995.09v23h-10.95v-58.86h17.95c4.02,0,7.46.41,10.32,1.24,2.86.83,5.21,1.99,7.04,3.48,1.83,1.49,3.18,3.28,4.03,5.35.85,2.08,1.28,4.36,1.28,6.86,0,1.98-.29,3.85-.88,5.62-.58,1.76-1.42,3.37-2.52,4.8-1.1,1.44-2.46,2.7-4.07,3.79-1.61,1.09-3.45,1.95-5.52,2.6,1.38.79,2.58,1.91,3.58,3.38l14.74,21.74h-9.85c-.95,0-1.76-.19-2.42-.57-.67-.38-1.23-.92-1.69-1.63l-12.37-18.85c-.46-.71-.97-1.21-1.53-1.51-.56-.3-1.38-.45-2.46-.45h-4.68Zm0-7.86h6.84c2.06,0,3.86-.26,5.39-.77,1.53-.52,2.79-1.23,3.79-2.14.99-.91,1.73-1.99,2.22-3.24.49-1.25.73-2.62.73-4.11,0-2.98-.98-5.28-2.95-6.88-1.97-1.6-4.97-2.4-9.02-2.4h-7v19.54Z"/><path class="cls-2" d="m4290.18,988.66c0,4.31-.72,8.28-2.16,11.89-1.44,3.61-3.46,6.72-6.06,9.32-2.61,2.61-5.74,4.63-9.4,6.07s-7.72,2.16-12.17,2.16h-22.47v-58.86h22.47c4.45,0,8.51.73,12.17,2.18,3.66,1.45,6.8,3.47,9.4,6.07,2.6,2.59,4.63,5.69,6.06,9.3,1.44,3.61,2.16,7.57,2.16,11.89Zm-11.19,0c0-3.23-.43-6.13-1.3-8.69-.87-2.56-2.1-4.74-3.7-6.51-1.6-1.78-3.55-3.14-5.84-4.09-2.29-.95-4.88-1.42-7.75-1.42h-11.44v41.44h11.44c2.88,0,5.46-.47,7.75-1.42,2.29-.95,4.24-2.31,5.84-4.09,1.6-1.78,2.83-3.95,3.7-6.51.87-2.56,1.3-5.46,1.3-8.69Z"/><path class="cls-2" d="m4338.22,959.23v4.03c0,1.25-.35,2.39-1.06,3.42l-30.2,42.66h30.53v8.75h-44.74v-4.31c0-.54.09-1.06.28-1.57.19-.5.43-.97.73-1.4l30.29-42.86h-29.39v-8.71h43.55Z"/><path class="cls-2" d="m4398.13,1018.09h-8.47c-.95,0-1.73-.24-2.34-.71-.61-.47-1.05-1.06-1.32-1.77l-4.4-12.01h-24.38l-4.4,12.01c-.22.62-.64,1.19-1.28,1.71-.64.52-1.42.77-2.34.77h-8.51l23.12-58.86h11.19l23.12,58.86Zm-38.1-22.23h18.77l-7.16-19.58c-.33-.87-.69-1.89-1.08-3.07-.39-1.18-.78-2.46-1.16-3.85-.38,1.38-.75,2.67-1.12,3.87-.37,1.19-.73,2.24-1.08,3.13l-7.16,19.5Z"/><path class="cls-2" d="m4435.75,969.94c-.3.6-.65,1.02-1.04,1.26-.39.24-.86.37-1.4.37s-1.15-.21-1.83-.63c-.68-.42-1.48-.89-2.4-1.4-.92-.52-2-.98-3.24-1.4-1.24-.42-2.69-.63-4.38-.63-1.52,0-2.84.18-3.97.55-1.13.37-2.08.88-2.85,1.53s-1.35,1.43-1.73,2.34c-.38.91-.57,1.91-.57,2.99,0,1.38.39,2.54,1.16,3.46.77.92,1.8,1.71,3.07,2.36,1.28.65,2.73,1.24,4.36,1.75,1.63.52,3.29,1.07,4.99,1.65,1.7.58,3.36,1.26,4.99,2.04,1.63.77,3.08,1.75,4.36,2.93s2.3,2.63,3.07,4.33c.77,1.71,1.16,3.79,1.16,6.23,0,2.66-.45,5.15-1.36,7.47s-2.24,4.34-3.99,6.06c-1.75,1.72-3.89,3.08-6.41,4.07s-5.41,1.49-8.67,1.49c-1.87,0-3.72-.18-5.54-.55-1.82-.37-3.56-.89-5.23-1.57-1.67-.68-3.23-1.49-4.68-2.44-1.45-.95-2.75-2.01-3.89-3.18l3.18-5.25c.3-.38.66-.7,1.08-.96.42-.26.89-.39,1.4-.39.68,0,1.41.28,2.2.83.79.56,1.72,1.17,2.79,1.85,1.07.68,2.33,1.3,3.79,1.85,1.45.56,3.2.83,5.23.83,3.12,0,5.54-.74,7.25-2.22,1.71-1.48,2.56-3.6,2.56-6.37,0-1.55-.39-2.81-1.16-3.79-.77-.98-1.8-1.8-3.07-2.46-1.28-.67-2.73-1.23-4.36-1.69-1.63-.46-3.28-.96-4.97-1.51-1.68-.54-3.34-1.19-4.97-1.95-1.63-.76-3.08-1.75-4.36-2.97-1.28-1.22-2.3-2.75-3.07-4.58-.77-1.83-1.16-4.09-1.16-6.78,0-2.14.43-4.23,1.28-6.27s2.1-3.84,3.75-5.41c1.64-1.57,3.66-2.84,6.04-3.79,2.39-.95,5.11-1.42,8.18-1.42,3.47,0,6.68.54,9.61,1.63,2.93,1.09,5.43,2.61,7.49,4.56l-2.69,5.17Z"/><path class="cls-2" d="m4489.93,959.23v4.03c0,1.25-.35,2.39-1.06,3.42l-30.2,42.66h30.53v8.75h-44.74v-4.31c0-.54.09-1.06.28-1.57.19-.5.43-.97.73-1.4l30.29-42.86h-29.39v-8.71h43.55Z"/><path class="cls-2" d="m3804.06,1107.65c2.47,0,4.62-.22,6.45-.67s3.57-1.06,5.23-1.85v-10.7h-7.36c-.71,0-1.26-.2-1.67-.59-.41-.39-.61-.87-.61-1.44v-6.18h19.56v23.79c-1.49,1.08-3.04,2.03-4.66,2.83s-3.33,1.46-5.17,1.97-3.79.9-5.88,1.16-4.34.39-6.75.39c-4.29,0-8.23-.75-11.84-2.24-3.61-1.49-6.72-3.56-9.35-6.22-2.63-2.66-4.68-5.83-6.16-9.52-1.48-3.69-2.22-7.71-2.22-12.08s.72-8.47,2.16-12.16,3.48-6.86,6.12-9.52,5.85-4.72,9.62-6.18c3.77-1.46,8-2.2,12.69-2.2s8.95.71,12.47,2.14c3.51,1.42,6.49,3.27,8.93,5.55l-3.17,4.96c-.62,1-1.45,1.5-2.48,1.5-.65,0-1.32-.22-1.99-.65-.87-.51-1.76-1.03-2.66-1.55-.91-.52-1.91-.96-3.01-1.34-1.1-.38-2.33-.69-3.7-.94s-2.95-.37-4.74-.37c-2.9,0-5.53.49-7.87,1.46-2.35.98-4.35,2.37-6,4.19-1.65,1.82-2.93,4-3.82,6.55-.89,2.55-1.34,5.4-1.34,8.54,0,3.39.47,6.41,1.42,9.05.95,2.64,2.28,4.87,3.99,6.69,1.71,1.82,3.74,3.21,6.1,4.17,2.36.96,4.93,1.44,7.73,1.44Z"/><path class="cls-2" d="m3892.27,1086.3c0,4.31-.72,8.3-2.16,11.98-1.44,3.67-3.46,6.85-6.06,9.54-2.6,2.68-5.73,4.78-9.4,6.28-3.66,1.5-7.71,2.26-12.16,2.26s-8.51-.75-12.18-2.26-6.82-3.6-9.44-6.28c-2.62-2.68-4.64-5.86-6.08-9.54-1.44-3.67-2.16-7.67-2.16-11.98s.72-8.3,2.16-11.98c1.44-3.67,3.46-6.85,6.08-9.54,2.62-2.68,5.76-4.78,9.44-6.28s7.73-2.26,12.18-2.26,8.5.76,12.16,2.28c3.66,1.52,6.79,3.61,9.4,6.28,2.6,2.67,4.62,5.84,6.06,9.52,1.44,3.67,2.16,7.67,2.16,11.98Zm-11.23,0c0-3.23-.43-6.12-1.28-8.68-.85-2.56-2.08-4.74-3.68-6.53-1.6-1.79-3.54-3.16-5.84-4.11-2.29-.95-4.87-1.42-7.75-1.42s-5.46.48-7.77,1.42c-2.3.95-4.26,2.32-5.88,4.11-1.61,1.79-2.85,3.97-3.72,6.53-.87,2.56-1.3,5.46-1.3,8.68s.43,6.12,1.3,8.68c.87,2.56,2.11,4.73,3.72,6.51,1.61,1.78,3.57,3.14,5.88,4.09s4.89,1.42,7.77,1.42,5.46-.47,7.75-1.42c2.29-.95,4.24-2.31,5.84-4.09,1.6-1.78,2.83-3.94,3.68-6.51.85-2.56,1.28-5.46,1.28-8.68Z"/><path class="cls-2" d="m3939.17,1056.89v8.99h-17.69v49.82h-10.94v-49.82h-17.77v-8.99h46.41Z"/><path class="cls-2" d="m3999.36,1086.3c0,4.31-.72,8.3-2.16,11.98-1.44,3.67-3.46,6.85-6.06,9.54-2.6,2.68-5.73,4.78-9.4,6.28-3.66,1.5-7.71,2.26-12.16,2.26s-8.51-.75-12.18-2.26-6.82-3.6-9.44-6.28c-2.62-2.68-4.64-5.86-6.08-9.54-1.44-3.67-2.16-7.67-2.16-11.98s.72-8.3,2.16-11.98c1.44-3.67,3.46-6.85,6.08-9.54,2.62-2.68,5.76-4.78,9.44-6.28s7.73-2.26,12.18-2.26,8.5.76,12.16,2.28c3.66,1.52,6.79,3.61,9.4,6.28,2.6,2.67,4.62,5.84,6.06,9.52,1.44,3.67,2.16,7.67,2.16,11.98Zm-11.23,0c0-3.23-.43-6.12-1.28-8.68-.85-2.56-2.08-4.74-3.68-6.53-1.6-1.79-3.54-3.16-5.84-4.11-2.29-.95-4.87-1.42-7.75-1.42s-5.46.48-7.77,1.42c-2.3.95-4.26,2.32-5.88,4.11-1.61,1.79-2.85,3.97-3.72,6.53-.87,2.56-1.3,5.46-1.3,8.68s.43,6.12,1.3,8.68c.87,2.56,2.11,4.73,3.72,6.51,1.61,1.78,3.57,3.14,5.88,4.09s4.89,1.42,7.77,1.42,5.46-.47,7.75-1.42c2.29-.95,4.24-2.31,5.84-4.09,1.6-1.78,2.83-3.94,3.68-6.51.85-2.56,1.28-5.46,1.28-8.68Z"/><path class="cls-2" d="m4002.53,1056.89h9.19c.95,0,1.74.22,2.38.67.64.45,1.06,1.05,1.28,1.81l10,35.18c.24.87.47,1.81.67,2.83.2,1.02.4,2.09.59,3.23.22-1.14.45-2.22.71-3.23.26-1.02.54-1.96.83-2.83l11.55-35.18c.22-.62.64-1.19,1.28-1.71.64-.51,1.42-.77,2.34-.77h3.21c.95,0,1.74.22,2.36.67.62.45,1.06,1.05,1.3,1.81l11.47,35.18c.6,1.74,1.11,3.66,1.55,5.78.19-1.06.39-2.07.59-3.05.2-.98.41-1.88.63-2.72l10-35.18c.19-.68.61-1.26,1.26-1.75.65-.49,1.44-.73,2.36-.73h8.58l-18.26,58.81h-9.88l-12.85-40.18c-.16-.52-.33-1.07-.51-1.67-.18-.6-.35-1.23-.51-1.91-.16.68-.33,1.32-.51,1.91-.18.6-.35,1.15-.51,1.67l-12.97,40.18h-9.88l-18.26-58.81Z"/><path class="cls-2" d="m4119.26,1092.85v22.86h-10.94v-22.86l-21.43-35.95h9.64c.95,0,1.7.23,2.26.69s1.02,1.04,1.4,1.75l10.78,19.64c.62,1.17,1.17,2.27,1.63,3.31.46,1.04.88,2.07,1.26,3.07.35-1.03.75-2.07,1.2-3.11.45-1.04.98-2.14,1.61-3.27l10.7-19.64c.3-.6.75-1.15,1.34-1.67.6-.51,1.36-.77,2.28-.77h9.68l-21.39,35.95Z"/><path class="cls-2" d="m4173.35,1095v20.7h-10.94v-58.81h19.16c3.93,0,7.33.46,10.21,1.38s5.25,2.21,7.12,3.86c1.87,1.65,3.25,3.63,4.15,5.94.9,2.3,1.34,4.83,1.34,7.56s-.47,5.46-1.42,7.83c-.95,2.37-2.37,4.41-4.27,6.12-1.9,1.71-4.27,3.04-7.12,3.99-2.85.95-6.18,1.42-10,1.42h-8.22Zm0-8.54h8.22c2.01,0,3.75-.25,5.25-.75,1.49-.5,2.72-1.22,3.7-2.16.98-.94,1.71-2.07,2.2-3.42.49-1.34.73-2.84.73-4.49s-.24-3-.73-4.27-1.22-2.36-2.2-3.25c-.98-.9-2.21-1.58-3.7-2.05-1.49-.47-3.24-.71-5.25-.71h-8.22v21.11Z"/><path class="cls-2" d="m4224.19,1092.72v22.98h-10.94v-58.81h17.94c4.01,0,7.45.41,10.31,1.24,2.86.83,5.21,1.99,7.04,3.48,1.83,1.49,3.17,3.27,4.03,5.35.85,2.07,1.28,4.36,1.28,6.85,0,1.98-.29,3.85-.87,5.61-.58,1.76-1.42,3.36-2.52,4.8-1.1,1.44-2.45,2.7-4.07,3.78-1.61,1.08-3.45,1.95-5.51,2.6,1.38.79,2.58,1.91,3.58,3.38l14.72,21.72h-9.84c-.95,0-1.76-.19-2.42-.57-.66-.38-1.23-.92-1.69-1.63l-12.36-18.83c-.46-.71-.97-1.21-1.53-1.5s-1.38-.45-2.46-.45h-4.68Zm0-7.85h6.83c2.06,0,3.86-.26,5.39-.77,1.53-.51,2.79-1.23,3.78-2.14.99-.91,1.73-1.99,2.22-3.23.49-1.25.73-2.62.73-4.11,0-2.98-.98-5.27-2.95-6.87-1.97-1.6-4.97-2.4-9.01-2.4h-7v19.52Z"/><path class="cls-2" d="m4320.62,1086.3c0,4.31-.72,8.3-2.16,11.98-1.44,3.67-3.46,6.85-6.06,9.54-2.6,2.68-5.74,4.78-9.4,6.28s-7.71,2.26-12.16,2.26-8.51-.75-12.18-2.26c-3.67-1.5-6.82-3.6-9.44-6.28-2.62-2.68-4.64-5.86-6.08-9.54-1.44-3.67-2.16-7.67-2.16-11.98s.72-8.3,2.16-11.98c1.44-3.67,3.46-6.85,6.08-9.54,2.62-2.68,5.76-4.78,9.44-6.28,3.67-1.5,7.73-2.26,12.18-2.26s8.5.76,12.16,2.28c3.66,1.52,6.79,3.61,9.4,6.28,2.6,2.67,4.62,5.84,6.06,9.52,1.44,3.67,2.16,7.67,2.16,11.98Zm-11.22,0c0-3.23-.43-6.12-1.28-8.68-.85-2.56-2.08-4.74-3.68-6.53-1.6-1.79-3.55-3.16-5.84-4.11-2.29-.95-4.87-1.42-7.75-1.42s-5.46.48-7.77,1.42c-2.31.95-4.26,2.32-5.88,4.11-1.61,1.79-2.85,3.97-3.72,6.53-.87,2.56-1.3,5.46-1.3,8.68s.43,6.12,1.3,8.68c.87,2.56,2.11,4.73,3.72,6.51,1.61,1.78,3.57,3.14,5.88,4.09,2.3.95,4.89,1.42,7.77,1.42s5.46-.47,7.75-1.42,4.24-2.31,5.84-4.09c1.6-1.78,2.83-3.94,3.68-6.51.85-2.56,1.28-5.46,1.28-8.68Z"/><path class="cls-2" d="m4352.92,1094.8c0,3.31-.41,6.29-1.22,8.95-.81,2.66-2.03,4.92-3.64,6.79-1.61,1.87-3.63,3.31-6.04,4.31-2.41,1-5.22,1.5-8.42,1.5-1.46,0-2.9-.09-4.31-.26-1.41-.18-2.89-.45-4.43-.83l.57-6.51c.05-.6.28-1.08.67-1.44.39-.37.97-.55,1.73-.55.46,0,1.06.1,1.81.28.75.19,1.69.28,2.83.28,1.55,0,2.92-.22,4.11-.67,1.19-.45,2.19-1.16,2.99-2.14s1.4-2.24,1.81-3.8c.41-1.56.61-3.45.61-5.67v-38.15h10.94v37.91Z"/><path class="cls-2" d="m4401.88,1056.89v8.7h-26.07v16.31h20.54v8.42h-20.54v16.63h26.07v8.74h-37.09v-58.81h37.09Z"/><path class="cls-2" d="m4422.67,1081.54h2.56c1.03,0,1.88-.14,2.56-.43s1.26-.74,1.75-1.36l16.23-20.54c.68-.87,1.39-1.47,2.13-1.81.75-.34,1.69-.51,2.83-.51h9.44l-19.81,24.44c-.62.76-1.22,1.4-1.79,1.91s-1.18.94-1.83,1.26c.89.33,1.7.79,2.42,1.38.72.6,1.42,1.36,2.09,2.28l20.42,27.53h-9.68c-1.3,0-2.27-.18-2.91-.55-.64-.37-1.17-.9-1.61-1.61l-16.63-21.72c-.54-.7-1.15-1.21-1.83-1.53-.68-.31-1.64-.47-2.89-.47h-3.46v25.87h-10.94v-58.85h10.94v24.69Z"/><path class="cls-2" d="m4509.58,1056.89v8.99h-17.69v49.82h-10.94v-49.82h-17.77v-8.99h46.41Z"/></g><path class="cls-3" d="m3189.78,763.57v-197.44l170.99,98.72-170.99,98.72Zm10-180.12v162.8l140.99-81.4-140.99-81.4Z"/><g><path class="cls-3" d="m4395.54,273.72l-18.49,27.51c37.65,16.74,63.96,54.5,63.96,98.29v251.01c0,59.26-48.23,107.49-107.51,107.49h-385.32c-59.26,0-107.49-48.23-107.49-107.49v-251.01c0-59.28,48.23-107.51,107.49-107.51h246.44v-32.78h-246.44c-77.33,0-140.26,62.93-140.26,140.28v251.01c0,77.33,62.93,140.26,140.26,140.26h385.32c77.35,0,140.28-62.93,140.28-140.26v-251.01c0-55.11-31.92-102.88-78.25-125.8Z"/><path class="cls-3" d="m4373.65,209.8l-78.1-35.42c-5.22-2.36-11.41-.04-13.77,5.2l-131.83,290.77-.04.02-9.07,19.99,26.51,70.4,70.69-26.57,140.81-310.64c2.38-5.24.04-11.41-5.2-13.77Zm-191.64,318.66l-9.77-25.96,35.71,16.19-25.94,9.77Zm163.73-292.35l-115.09,253.89c-2.38,5.22-8.54,7.56-13.79,5.18l-32.6-14.79c-5.24-2.36-7.56-8.54-5.2-13.77l115.09-253.89c2.38-5.24,8.54-7.54,13.79-5.18l32.62,14.79c5.22,2.38,7.54,8.54,5.18,13.77Z"/><polyline class="cls-3" points="4194.62 292.01 4211.73 259.23 4194.62 259.23"/><path class="cls-3" d="m3962.42,730.03l-3.13-20.41c-.51-3.3,1.75-6.38,5.04-6.9,28.25-4.5,58.71-10.48,81.82-16.17,5.69-1.4,6.25-9.27.83-11.49h0c-50.61-20.76-119.93-49.2-131.81-97.87-3.12-12.8-.07-24.58,8.6-33.15,10.8-10.69,35.4-23.38,123.86-10.2,36.04,5.36,69.23,13,82.41,16.18,3.28.79,5.27,4.11,4.44,7.39l-5.11,20.03c-.82,3.21-4.05,5.17-7.27,4.4-13.26-3.18-47.44-11.01-82.96-16.1-77.23-11.07-91.23.56-92.39,1.71-.02.3.01.96.26,2,7.92,32.45,73.33,59.28,112.4,75.32,32.27,13.24,47,19.28,51.47,31.57,2,5.51,1.39,11.65-1.68,16.83-4.84,8.17-15.12,17.31-81.41,31.18-24.36,5.1-47.74,9.04-58.44,10.77-3.32.54-6.44-1.74-6.95-5.06Z"/><path class="cls-3" d="m3896.9,367.98h254.44c-7.6,10.51-17.48,24.19-23.64,32.78h-230.79v-32.78Z"/><polygon class="cls-3" points="4396.02 367.98 4396.02 400.76 4331.76 400.76 4344.26 367.98 4396.02 367.98"/></g><rect class="cls-1" x="5215.84" y="0" width="1329.7" height="1329.7" rx="276.77" ry="276.77"/><g><path class="cls-2" d="m5497.06,995.91h7.41v5.82c0,.54-.18,1.01-.53,1.4-.35.39-.87.59-1.55.59h-5.33v14.37h-8.79v-14.37h-24.83c-.68,0-1.28-.21-1.79-.63-.52-.42-.84-.94-.98-1.57l-1.02-5.09,27.88-37.25h9.53v36.72Zm-8.79-19.25c0-.87.03-1.8.08-2.81s.15-2.05.29-3.13l-18.28,25.2h17.91v-19.25Z"/><path class="cls-2" d="m5508.91,1012.56c0-.84.16-1.64.47-2.4s.75-1.41,1.3-1.95c.56-.54,1.21-.98,1.97-1.3.76-.33,1.57-.49,2.44-.49s1.64.16,2.4.49c.76.33,1.41.76,1.95,1.3.54.54.98,1.19,1.3,1.95.33.76.49,1.56.49,2.4s-.16,1.68-.49,2.42c-.33.75-.76,1.39-1.3,1.93-.54.54-1.19.97-1.95,1.28-.76.31-1.56.47-2.4.47s-1.68-.16-2.44-.47c-.76-.31-1.42-.74-1.97-1.28-.56-.54-.99-1.19-1.3-1.93-.31-.75-.47-1.55-.47-2.42Z"/><path class="cls-2" d="m5587.96,959.23v4.03c0,1.25-.35,2.39-1.06,3.42l-30.2,42.66h30.53v8.75h-44.74v-4.31c0-.54.09-1.06.29-1.57.19-.5.43-.97.73-1.4l30.29-42.86h-29.39v-8.71h43.56Z"/><path class="cls-2" d="m5607.09,1009.06h23.57v9.04h-34.52v-58.86h10.95v49.82Z"/><path class="cls-2" d="m5675.35,959.23v8.71h-26.09v16.32h20.56v8.43h-20.56v16.65h26.09v8.75h-37.12v-58.86h37.12Z"/><path class="cls-2" d="m5725.3,1004.21c.6,0,1.11.23,1.55.69l4.31,4.68c-2.39,2.96-5.33,5.22-8.81,6.8-3.49,1.57-7.67,2.36-12.56,2.36-4.37,0-8.3-.75-11.78-2.24-3.49-1.49-6.47-3.57-8.94-6.23-2.47-2.66-4.36-5.83-5.68-9.53-1.32-3.69-1.97-7.72-1.97-12.09s.73-8.47,2.2-12.15c1.47-3.68,3.53-6.84,6.19-9.5,2.66-2.66,5.84-4.73,9.55-6.21,3.7-1.48,7.8-2.22,12.27-2.22s8.19.7,11.46,2.1c3.27,1.4,6.07,3.25,8.41,5.56l-3.66,5.09c-.22.33-.5.61-.83.85-.34.24-.81.37-1.4.37-.62,0-1.26-.24-1.91-.73-.65-.49-1.48-1.02-2.48-1.59s-2.27-1.1-3.81-1.59c-1.53-.49-3.48-.73-5.84-.73-2.77,0-5.31.48-7.63,1.45-2.32.96-4.32,2.34-5.98,4.13s-2.97,3.97-3.91,6.53c-.94,2.56-1.4,5.45-1.4,8.65s.47,6.26,1.4,8.83c.94,2.58,2.21,4.75,3.81,6.51s3.49,3.11,5.66,4.05c2.17.94,4.5,1.4,7,1.4,1.49,0,2.84-.08,4.05-.24,1.21-.16,2.32-.42,3.34-.77,1.02-.35,1.98-.81,2.89-1.36s1.81-1.24,2.71-2.06c.27-.24.56-.44.86-.59s.62-.22.98-.22Z"/><path class="cls-2" d="m5791.16,1018.09h-8.47c-.95,0-1.73-.24-2.34-.71-.61-.47-1.05-1.06-1.32-1.77l-4.4-12.01h-24.38l-4.4,12.01c-.22.62-.64,1.19-1.28,1.71-.64.52-1.42.77-2.34.77h-8.51l23.12-58.86h11.19l23.12,58.86Zm-38.1-22.23h18.77l-7.16-19.58c-.33-.87-.69-1.89-1.08-3.07-.39-1.18-.78-2.46-1.16-3.85-.38,1.38-.75,2.67-1.12,3.87-.37,1.19-.73,2.24-1.08,3.13l-7.16,19.5Z"/><path class="cls-2" d="m5828.06,996.38c.39.94.78,1.88,1.16,2.83.38-.98.77-1.94,1.18-2.89.41-.95.84-1.86,1.3-2.73l17.42-32.61c.22-.41.44-.73.67-.98.23-.24.49-.42.77-.53.28-.11.6-.18.96-.2.35-.03.77-.04,1.26-.04h8.26v58.86h-9.65v-38.02c0-.71.02-1.48.06-2.32.04-.84.1-1.7.18-2.56l-17.79,33.38c-.41.76-.94,1.35-1.59,1.77-.65.42-1.41.63-2.28.63h-1.51c-.87,0-1.63-.21-2.28-.63-.65-.42-1.18-1.01-1.59-1.77l-18.03-33.5c.11.9.18,1.77.22,2.63.04.85.06,1.65.06,2.38v38.02h-9.65v-58.86h8.26c.49,0,.91.01,1.26.04.35.03.67.1.96.2s.55.28.79.53c.24.24.47.57.69.98l17.59,32.69c.46.87.89,1.77,1.28,2.71Z"/><path class="cls-2" d="m5899.11,995.22v22.88h-10.95v-22.88l-21.45-35.98h9.65c.95,0,1.7.23,2.26.69.56.46,1.02,1.04,1.4,1.75l10.79,19.66c.62,1.17,1.17,2.27,1.63,3.32.46,1.04.88,2.07,1.26,3.07.35-1.03.75-2.07,1.2-3.11.45-1.04.98-2.14,1.61-3.28l10.71-19.66c.3-.6.75-1.15,1.34-1.67.6-.52,1.36-.77,2.28-.77h9.69l-21.41,35.98Z"/><path class="cls-2" d="m5936.47,959.23h9.2c.95,0,1.74.22,2.38.67.64.45,1.06,1.05,1.28,1.81l10.01,35.21c.24.87.47,1.81.67,2.83.2,1.02.4,2.1.59,3.24.22-1.14.45-2.22.71-3.24s.54-1.96.83-2.83l11.56-35.21c.22-.62.64-1.19,1.28-1.71.64-.52,1.42-.77,2.34-.77h3.22c.95,0,1.74.22,2.36.67s1.06,1.05,1.3,1.81l11.48,35.21c.6,1.74,1.11,3.66,1.55,5.78.19-1.06.39-2.08.59-3.05.2-.98.41-1.89.63-2.73l10.01-35.21c.19-.68.61-1.26,1.26-1.75.65-.49,1.44-.73,2.36-.73h8.59l-18.28,58.86h-9.89l-12.86-40.22c-.16-.52-.33-1.07-.51-1.67-.18-.6-.35-1.23-.51-1.91-.16.68-.33,1.32-.51,1.91-.18.6-.35,1.15-.51,1.67l-12.98,40.22h-9.89l-18.28-58.86Z"/><path class="cls-2" d="m6053.3,995.22v22.88h-10.95v-22.88l-21.45-35.98h9.65c.95,0,1.7.23,2.26.69.56.46,1.02,1.04,1.4,1.75l10.79,19.66c.62,1.17,1.17,2.27,1.63,3.32.46,1.04.88,2.07,1.26,3.07.35-1.03.75-2.07,1.2-3.11.45-1.04.98-2.14,1.61-3.28l10.71-19.66c.3-.6.75-1.15,1.34-1.67.6-.52,1.36-.77,2.28-.77h9.69l-21.41,35.98Z"/><path class="cls-2" d="m6132.68,988.66c0,4.31-.72,8.28-2.16,11.89-1.44,3.61-3.46,6.72-6.06,9.32-2.61,2.61-5.74,4.63-9.4,6.07-3.66,1.44-7.72,2.16-12.17,2.16h-22.47v-58.86h22.47c4.45,0,8.51.73,12.17,2.18,3.66,1.45,6.8,3.47,9.4,6.07,2.6,2.59,4.63,5.69,6.06,9.3,1.44,3.61,2.16,7.57,2.16,11.89Zm-11.2,0c0-3.23-.43-6.13-1.3-8.69-.87-2.56-2.1-4.74-3.7-6.51-1.6-1.78-3.55-3.14-5.84-4.09-2.29-.95-4.88-1.42-7.75-1.42h-11.44v41.44h11.44c2.88,0,5.46-.47,7.75-1.42,2.29-.95,4.24-2.31,5.84-4.09,1.6-1.78,2.83-3.95,3.7-6.51.87-2.56,1.3-5.46,1.3-8.69Z"/><path class="cls-2" d="m6152.58,995.09v23h-10.95v-58.86h17.95c4.02,0,7.46.41,10.32,1.24,2.86.83,5.21,1.99,7.04,3.48,1.83,1.49,3.17,3.28,4.03,5.35.85,2.08,1.28,4.36,1.28,6.86,0,1.98-.29,3.85-.88,5.62-.58,1.76-1.42,3.37-2.52,4.8-1.1,1.44-2.46,2.7-4.07,3.79-1.62,1.09-3.45,1.95-5.52,2.6,1.38.79,2.58,1.91,3.58,3.38l14.74,21.74h-9.85c-.95,0-1.76-.19-2.42-.57-.67-.38-1.23-.92-1.69-1.63l-12.38-18.85c-.46-.71-.97-1.21-1.53-1.51-.56-.3-1.38-.45-2.46-.45h-4.68Zm0-7.86h6.84c2.06,0,3.86-.26,5.39-.77,1.53-.52,2.79-1.23,3.79-2.14.99-.91,1.73-1.99,2.22-3.24.49-1.25.73-2.62.73-4.11,0-2.98-.98-5.28-2.95-6.88-1.97-1.6-4.97-2.4-9.02-2.4h-7v19.54Z"/><path class="cls-2" d="m6216.2,1009.26c2.12,0,4.01-.35,5.68-1.06,1.67-.71,3.08-1.7,4.23-2.97,1.15-1.27,2.04-2.82,2.65-4.64.61-1.82.92-3.85.92-6.11v-35.25h10.95v35.25c0,3.5-.56,6.74-1.69,9.71-1.13,2.97-2.75,5.54-4.86,7.69-2.12,2.16-4.68,3.84-7.69,5.05-3.01,1.21-6.41,1.81-10.18,1.81s-7.16-.6-10.18-1.81-5.57-2.89-7.67-5.05c-2.1-2.16-3.72-4.72-4.84-7.69-1.13-2.97-1.69-6.21-1.69-9.71v-35.25h10.95v35.21c0,2.25.31,4.29.92,6.11.61,1.82,1.49,3.37,2.63,4.66,1.14,1.29,2.54,2.29,4.21,2.99,1.67.71,3.56,1.06,5.68,1.06Z"/><path class="cls-2" d="m6263.1,983.9h2.56c1.03,0,1.89-.14,2.56-.43.68-.29,1.26-.74,1.75-1.36l16.24-20.56c.68-.87,1.39-1.47,2.14-1.81.75-.34,1.69-.51,2.83-.51h9.44l-19.82,24.46c-.62.76-1.22,1.4-1.79,1.91-.57.52-1.18.94-1.83,1.26.9.33,1.7.79,2.42,1.38.72.6,1.42,1.36,2.1,2.28l20.43,27.56h-9.69c-1.3,0-2.27-.18-2.91-.55-.64-.37-1.17-.9-1.61-1.61l-16.65-21.74c-.54-.71-1.15-1.21-1.83-1.53-.68-.31-1.64-.47-2.89-.47h-3.46v25.89h-10.95v-58.9h10.95v24.71Z"/><path class="cls-2" d="m5491.83,1056.93v9h-17.71v49.86h-10.95v-49.86h-17.79v-9h46.45Z"/><path class="cls-2" d="m5493.33,1056.93h9.2c.95,0,1.74.22,2.38.67.64.45,1.06,1.05,1.28,1.81l10.01,35.21c.24.87.47,1.81.67,2.83.2,1.02.4,2.1.59,3.24.22-1.14.45-2.22.71-3.24s.54-1.96.83-2.83l11.56-35.21c.22-.62.64-1.19,1.28-1.71.64-.52,1.42-.77,2.34-.77h3.22c.95,0,1.74.22,2.36.67s1.06,1.05,1.3,1.81l11.48,35.21c.6,1.74,1.11,3.66,1.55,5.78.19-1.06.39-2.08.59-3.05.2-.98.41-1.89.63-2.73l10.01-35.21c.19-.68.61-1.26,1.26-1.75.65-.49,1.44-.73,2.36-.73h8.59l-18.28,58.86h-9.89l-12.86-40.22c-.16-.52-.33-1.07-.51-1.67-.18-.6-.35-1.23-.51-1.91-.16.68-.33,1.32-.51,1.91-.18.6-.35,1.15-.51,1.67l-12.98,40.22h-9.89l-18.28-58.86Z"/><path class="cls-2" d="m5640.44,1086.36c0,4.31-.72,8.31-2.16,11.99-1.44,3.68-3.46,6.86-6.07,9.55s-5.74,4.78-9.4,6.29c-3.66,1.51-7.72,2.26-12.17,2.26s-8.51-.75-12.19-2.26c-3.68-1.51-6.82-3.6-9.44-6.29s-4.65-5.87-6.09-9.55c-1.44-3.68-2.16-7.67-2.16-11.99s.72-8.31,2.16-11.99,3.47-6.86,6.09-9.55,5.77-4.78,9.44-6.29c3.68-1.51,7.74-2.26,12.19-2.26s8.51.76,12.17,2.28c3.66,1.52,6.8,3.62,9.4,6.29,2.61,2.67,4.63,5.85,6.07,9.53s2.16,7.67,2.16,11.99Zm-11.23,0c0-3.23-.43-6.13-1.28-8.69-.85-2.56-2.08-4.74-3.68-6.53s-3.55-3.16-5.84-4.11c-2.29-.95-4.88-1.42-7.75-1.42s-5.47.48-7.77,1.42c-2.31.95-4.27,2.32-5.88,4.11-1.62,1.79-2.86,3.97-3.72,6.53-.87,2.56-1.3,5.46-1.3,8.69s.43,6.13,1.3,8.69c.87,2.56,2.11,4.74,3.72,6.51,1.61,1.78,3.57,3.14,5.88,4.09,2.31.95,4.9,1.42,7.77,1.42s5.46-.47,7.75-1.42c2.29-.95,4.24-2.31,5.84-4.09s2.83-3.95,3.68-6.51c.86-2.56,1.28-5.46,1.28-8.69Z"/><path class="cls-2" d="m5672.76,1094.86c0,3.31-.41,6.3-1.22,8.96-.81,2.66-2.03,4.93-3.64,6.8-1.61,1.87-3.63,3.31-6.04,4.31-2.42,1-5.22,1.51-8.43,1.51-1.46,0-2.9-.09-4.31-.26-1.41-.18-2.89-.45-4.44-.83l.57-6.51c.05-.6.28-1.08.67-1.44s.97-.55,1.73-.55c.46,0,1.06.1,1.81.28.75.19,1.69.29,2.83.29,1.55,0,2.92-.22,4.11-.67,1.19-.45,2.19-1.16,2.99-2.14.8-.98,1.4-2.25,1.81-3.81.41-1.56.61-3.45.61-5.68v-38.18h10.95v37.94Z"/><path class="cls-2" d="m5721.77,1056.93v8.71h-26.09v16.32h20.56v8.43h-20.56v16.65h26.09v8.75h-37.12v-58.86h37.12Z"/><path class="cls-2" d="m5758.29,1107.73c2.47,0,4.62-.22,6.45-.67s3.57-1.06,5.23-1.85v-10.71h-7.37c-.71,0-1.26-.2-1.67-.59-.41-.39-.61-.88-.61-1.44v-6.19h19.58v23.81c-1.49,1.09-3.05,2.03-4.66,2.83-1.62.8-3.34,1.46-5.17,1.97-1.83.52-3.79.9-5.88,1.16-2.09.26-4.34.39-6.76.39-4.29,0-8.24-.75-11.85-2.24-3.61-1.49-6.73-3.57-9.36-6.23-2.63-2.66-4.69-5.83-6.17-9.53-1.48-3.69-2.22-7.72-2.22-12.09s.72-8.48,2.16-12.17c1.44-3.69,3.48-6.87,6.13-9.52,2.65-2.66,5.85-4.72,9.63-6.19,3.77-1.47,8-2.2,12.7-2.2s8.96.71,12.48,2.14c3.51,1.42,6.49,3.28,8.93,5.56l-3.17,4.97c-.62,1-1.45,1.51-2.48,1.51-.65,0-1.32-.22-2-.65-.87-.52-1.76-1.03-2.67-1.55-.91-.52-1.91-.96-3.01-1.34-1.1-.38-2.33-.69-3.71-.94-1.37-.24-2.95-.37-4.74-.37-2.9,0-5.53.49-7.88,1.47-2.35.98-4.35,2.38-6,4.19-1.66,1.82-2.93,4-3.83,6.55-.89,2.55-1.34,5.4-1.34,8.55,0,3.39.47,6.41,1.42,9.06.95,2.65,2.28,4.88,3.99,6.7,1.71,1.82,3.75,3.21,6.11,4.17,2.36.96,4.94,1.45,7.73,1.45Z"/><path class="cls-2" d="m5846.58,1086.36c0,4.31-.72,8.31-2.16,11.99-1.44,3.68-3.46,6.86-6.07,9.55s-5.74,4.78-9.4,6.29c-3.66,1.51-7.72,2.26-12.17,2.26s-8.51-.75-12.19-2.26c-3.68-1.51-6.82-3.6-9.44-6.29s-4.65-5.87-6.09-9.55c-1.44-3.68-2.16-7.67-2.16-11.99s.72-8.31,2.16-11.99,3.47-6.86,6.09-9.55,5.77-4.78,9.44-6.29c3.68-1.51,7.74-2.26,12.19-2.26s8.51.76,12.17,2.28c3.66,1.52,6.8,3.62,9.4,6.29,2.61,2.67,4.63,5.85,6.07,9.53s2.16,7.67,2.16,11.99Zm-11.23,0c0-3.23-.43-6.13-1.28-8.69-.85-2.56-2.08-4.74-3.68-6.53s-3.55-3.16-5.84-4.11c-2.29-.95-4.88-1.42-7.75-1.42s-5.47.48-7.77,1.42c-2.31.95-4.27,2.32-5.88,4.11-1.62,1.79-2.86,3.97-3.72,6.53-.87,2.56-1.3,5.46-1.3,8.69s.43,6.13,1.3,8.69c.87,2.56,2.11,4.74,3.72,6.51,1.61,1.78,3.57,3.14,5.88,4.09,2.31.95,4.9,1.42,7.77,1.42s5.46-.47,7.75-1.42c2.29-.95,4.24-2.31,5.84-4.09s2.83-3.95,3.68-6.51c.86-2.56,1.28-5.46,1.28-8.69Z"/><path class="cls-2" d="m5882.24,1095.07v20.72h-10.95v-58.86h19.17c3.93,0,7.34.46,10.22,1.38,2.88.92,5.25,2.21,7.12,3.87,1.87,1.66,3.26,3.64,4.15,5.94.9,2.31,1.34,4.83,1.34,7.57s-.48,5.46-1.43,7.84c-.95,2.38-2.38,4.42-4.27,6.13-1.9,1.71-4.27,3.04-7.12,3.99-2.85.95-6.19,1.42-10.01,1.42h-8.22Zm0-8.55h8.22c2.01,0,3.76-.25,5.25-.75,1.49-.5,2.73-1.22,3.71-2.16.98-.94,1.71-2.08,2.2-3.42s.73-2.84.73-4.5-.25-3-.73-4.27c-.49-1.28-1.22-2.36-2.2-3.26-.98-.9-2.21-1.58-3.71-2.06-1.49-.47-3.24-.71-5.25-.71h-8.22v21.13Z"/><path class="cls-2" d="m5933.12,1092.79v23h-10.95v-58.86h17.95c4.02,0,7.46.41,10.32,1.24,2.86.83,5.21,1.99,7.04,3.48,1.83,1.49,3.18,3.28,4.03,5.35.86,2.08,1.28,4.36,1.28,6.86,0,1.98-.29,3.85-.88,5.62-.58,1.76-1.43,3.37-2.52,4.8-1.1,1.44-2.46,2.7-4.07,3.79-1.61,1.09-3.45,1.95-5.52,2.6,1.38.79,2.58,1.91,3.58,3.38l14.74,21.74h-9.85c-.95,0-1.76-.19-2.42-.57-.67-.38-1.23-.92-1.69-1.63l-12.37-18.85c-.46-.71-.97-1.21-1.53-1.51-.56-.3-1.38-.45-2.46-.45h-4.68Zm0-7.86h6.84c2.06,0,3.86-.26,5.39-.77,1.53-.52,2.79-1.23,3.79-2.14.99-.91,1.73-1.99,2.22-3.24.49-1.25.73-2.62.73-4.11,0-2.98-.98-5.28-2.95-6.88-1.97-1.6-4.97-2.4-9.02-2.4h-7v19.54Z"/><path class="cls-2" d="m6029.63,1086.36c0,4.31-.72,8.31-2.16,11.99-1.44,3.68-3.46,6.86-6.07,9.55s-5.74,4.78-9.4,6.29c-3.66,1.51-7.72,2.26-12.17,2.26s-8.51-.75-12.19-2.26c-3.68-1.51-6.82-3.6-9.44-6.29s-4.65-5.87-6.09-9.55c-1.44-3.68-2.16-7.67-2.16-11.99s.72-8.31,2.16-11.99,3.47-6.86,6.09-9.55,5.77-4.78,9.44-6.29c3.68-1.51,7.74-2.26,12.19-2.26s8.51.76,12.17,2.28c3.66,1.52,6.8,3.62,9.4,6.29,2.61,2.67,4.63,5.85,6.07,9.53s2.16,7.67,2.16,11.99Zm-11.23,0c0-3.23-.43-6.13-1.28-8.69-.85-2.56-2.08-4.74-3.68-6.53s-3.55-3.16-5.84-4.11c-2.29-.95-4.88-1.42-7.75-1.42s-5.47.48-7.77,1.42c-2.31.95-4.27,2.32-5.88,4.11-1.62,1.79-2.86,3.97-3.72,6.53-.87,2.56-1.3,5.46-1.3,8.69s.43,6.13,1.3,8.69c.87,2.56,2.11,4.74,3.72,6.51,1.61,1.78,3.57,3.14,5.88,4.09,2.31.95,4.9,1.42,7.77,1.42s5.46-.47,7.75-1.42c2.29-.95,4.24-2.31,5.84-4.09s2.83-3.95,3.68-6.51c.86-2.56,1.28-5.46,1.28-8.69Z"/><path class="cls-2" d="m6090.53,1086.36c0,4.31-.72,8.28-2.16,11.89-1.44,3.61-3.46,6.72-6.06,9.32-2.61,2.61-5.74,4.63-9.4,6.07-3.66,1.44-7.72,2.16-12.17,2.16h-22.47v-58.86h22.47c4.45,0,8.51.73,12.17,2.18,3.66,1.45,6.8,3.47,9.4,6.07,2.6,2.59,4.63,5.69,6.06,9.3,1.44,3.61,2.16,7.57,2.16,11.89Zm-11.2,0c0-3.23-.43-6.13-1.3-8.69-.87-2.56-2.1-4.74-3.7-6.51-1.6-1.78-3.55-3.14-5.84-4.09-2.29-.95-4.88-1.42-7.75-1.42h-11.44v41.44h11.44c2.88,0,5.46-.47,7.75-1.42,2.29-.95,4.24-2.31,5.84-4.09,1.6-1.78,2.83-3.95,3.7-6.51.87-2.56,1.3-5.46,1.3-8.69Z"/><path class="cls-2" d="m6122.81,1106.95c2.12,0,4.01-.35,5.68-1.06,1.67-.71,3.08-1.7,4.23-2.97,1.15-1.27,2.04-2.82,2.64-4.64.61-1.82.92-3.85.92-6.11v-35.25h10.95v35.25c0,3.5-.56,6.74-1.69,9.71-1.13,2.97-2.75,5.54-4.87,7.69-2.12,2.16-4.68,3.84-7.69,5.05-3.01,1.21-6.4,1.81-10.18,1.81s-7.16-.6-10.18-1.81-5.57-2.89-7.67-5.05c-2.1-2.16-3.72-4.72-4.84-7.69-1.13-2.97-1.69-6.21-1.69-9.71v-35.25h10.95v35.21c0,2.25.31,4.29.92,6.11.61,1.82,1.49,3.37,2.62,4.66,1.14,1.29,2.54,2.29,4.21,2.99,1.67.71,3.56,1.06,5.68,1.06Z"/><path class="cls-2" d="m6169.7,1081.59h2.56c1.03,0,1.89-.14,2.56-.43.68-.29,1.26-.74,1.75-1.36l16.24-20.56c.68-.87,1.39-1.47,2.14-1.81.75-.34,1.69-.51,2.83-.51h9.44l-19.82,24.46c-.62.76-1.22,1.4-1.79,1.91-.57.52-1.18.94-1.83,1.26.9.33,1.7.79,2.42,1.38.72.6,1.42,1.36,2.1,2.28l20.43,27.56h-9.69c-1.3,0-2.27-.18-2.91-.55-.64-.37-1.17-.9-1.61-1.61l-16.65-21.74c-.54-.71-1.15-1.21-1.83-1.53-.68-.31-1.64-.47-2.89-.47h-3.46v25.89h-10.95v-58.9h10.95v24.71Z"/><path class="cls-2" d="m6256.69,1056.93v9h-17.71v49.86h-10.95v-49.86h-17.79v-9h46.45Z"/><path class="cls-2" d="m6287.34,1106.95c2.12,0,4.01-.35,5.68-1.06,1.67-.71,3.08-1.7,4.23-2.97,1.15-1.27,2.04-2.82,2.65-4.64.61-1.82.92-3.85.92-6.11v-35.25h10.95v35.25c0,3.5-.56,6.74-1.69,9.71-1.13,2.97-2.75,5.54-4.86,7.69-2.12,2.16-4.68,3.84-7.69,5.05-3.01,1.21-6.41,1.81-10.18,1.81s-7.16-.6-10.18-1.81c-3.01-1.21-5.57-2.89-7.67-5.05-2.1-2.16-3.72-4.72-4.84-7.69-1.13-2.97-1.69-6.21-1.69-9.71v-35.25h10.95v35.21c0,2.25.31,4.29.92,6.11.61,1.82,1.49,3.37,2.63,4.66,1.14,1.29,2.54,2.29,4.21,2.99,1.67.71,3.56,1.06,5.68,1.06Z"/></g><path class="cls-3" d="m4929.61,763.57v-197.44l170.99,98.72-170.99,98.72Zm10-180.12v162.8l140.99-81.4-140.99-81.4Z"/><rect class="cls-1" x="6955.67" y="0" width="1329.7" height="1329.7" rx="276.77" ry="276.77"/><g><path class="cls-2" d="m7231.13,963.51c0,1.44-.46,2.6-1.36,3.5-.91.9-2.42,1.34-4.54,1.34h-16.2l-2.12,12.29c2.66-.54,5.09-.81,7.29-.81,3.09,0,5.81.46,8.16,1.38,2.35.92,4.32,2.2,5.92,3.83,1.6,1.63,2.81,3.54,3.62,5.72.81,2.18,1.22,4.54,1.22,7.06,0,3.12-.55,5.97-1.65,8.55s-2.62,4.78-4.58,6.61c-1.95,1.83-4.27,3.25-6.94,4.25-2.67,1-5.58,1.51-8.73,1.51-1.85,0-3.6-.19-5.25-.57-1.66-.38-3.21-.89-4.66-1.53s-2.8-1.37-4.03-2.2c-1.23-.83-2.34-1.7-3.32-2.63l3.09-4.27c.65-.92,1.52-1.38,2.6-1.38.68,0,1.36.22,2.06.65s1.5.91,2.42,1.42c.92.52,1.99.99,3.22,1.42,1.22.43,2.7.65,4.44.65,1.85,0,3.47-.3,4.88-.9,1.41-.6,2.58-1.43,3.52-2.5.94-1.07,1.64-2.35,2.12-3.83.47-1.48.71-3.09.71-4.82,0-3.2-.93-5.71-2.79-7.51-1.86-1.8-4.59-2.71-8.2-2.71-2.85,0-5.71.52-8.59,1.55l-6.27-1.79,4.88-28.58h29.06v4.27Z"/><path class="cls-2" d="m7241.07,1012.56c0-.84.16-1.64.47-2.4.31-.76.75-1.41,1.3-1.95.56-.54,1.21-.98,1.97-1.3.76-.33,1.57-.49,2.44-.49s1.64.16,2.4.49c.76.33,1.41.76,1.95,1.3.54.54.98,1.19,1.3,1.95s.49,1.56.49,2.4-.16,1.68-.49,2.42c-.33.75-.76,1.39-1.3,1.93-.54.54-1.19.97-1.95,1.28-.76.31-1.56.47-2.4.47s-1.68-.16-2.44-.47c-.76-.31-1.42-.74-1.97-1.28-.56-.54-.99-1.19-1.3-1.93-.31-.75-.47-1.55-.47-2.42Z"/><path class="cls-2" d="m7305.09,1010.03c2.47,0,4.62-.22,6.45-.67s3.57-1.06,5.23-1.85v-10.71h-7.37c-.71,0-1.26-.2-1.67-.59-.41-.39-.61-.88-.61-1.44v-6.19h19.58v23.81c-1.49,1.09-3.05,2.03-4.66,2.83-1.62.8-3.34,1.46-5.17,1.97-1.83.52-3.79.9-5.88,1.16-2.09.26-4.34.39-6.76.39-4.29,0-8.24-.75-11.85-2.24-3.61-1.49-6.73-3.57-9.36-6.23-2.63-2.66-4.69-5.83-6.17-9.53-1.48-3.69-2.22-7.72-2.22-12.09s.72-8.48,2.16-12.17c1.44-3.69,3.48-6.87,6.13-9.52,2.65-2.66,5.85-4.72,9.63-6.19,3.77-1.47,8-2.2,12.7-2.2s8.96.71,12.48,2.14c3.51,1.42,6.49,3.28,8.93,5.56l-3.17,4.97c-.62,1-1.45,1.51-2.48,1.51-.65,0-1.32-.22-2-.65-.87-.52-1.76-1.03-2.67-1.55-.91-.52-1.91-.96-3.01-1.34-1.1-.38-2.33-.69-3.71-.94-1.37-.24-2.95-.37-4.74-.37-2.9,0-5.53.49-7.88,1.47-2.35.98-4.35,2.38-6,4.19-1.66,1.82-2.93,4-3.83,6.55-.89,2.55-1.34,5.4-1.34,8.55,0,3.39.47,6.41,1.42,9.06.95,2.65,2.28,4.88,3.99,6.7,1.71,1.82,3.75,3.21,6.11,4.17,2.36.96,4.94,1.45,7.73,1.45Z"/><path class="cls-2" d="m7393.38,988.66c0,4.31-.72,8.31-2.16,11.99-1.44,3.68-3.46,6.86-6.07,9.55s-5.74,4.78-9.4,6.29c-3.66,1.51-7.72,2.26-12.17,2.26s-8.51-.75-12.19-2.26c-3.68-1.51-6.82-3.6-9.44-6.29s-4.65-5.87-6.09-9.55c-1.44-3.68-2.16-7.67-2.16-11.99s.72-8.31,2.16-11.99,3.47-6.86,6.09-9.55,5.77-4.78,9.44-6.29c3.68-1.51,7.74-2.26,12.19-2.26s8.51.76,12.17,2.28c3.66,1.52,6.8,3.62,9.4,6.29,2.61,2.67,4.63,5.85,6.07,9.53s2.16,7.67,2.16,11.99Zm-11.23,0c0-3.23-.43-6.13-1.28-8.69-.85-2.56-2.08-4.74-3.68-6.53s-3.55-3.16-5.84-4.11c-2.29-.95-4.88-1.42-7.75-1.42s-5.47.48-7.77,1.42c-2.31.95-4.27,2.32-5.88,4.11-1.62,1.79-2.86,3.97-3.72,6.53-.87,2.56-1.3,5.46-1.3,8.69s.43,6.13,1.3,8.69c.87,2.56,2.11,4.74,3.72,6.51,1.61,1.78,3.57,3.14,5.88,4.09,2.31.95,4.9,1.42,7.77,1.42s5.46-.47,7.75-1.42c2.29-.95,4.24-2.31,5.84-4.09s2.83-3.95,3.68-6.51c.86-2.56,1.28-5.46,1.28-8.69Z"/><path class="cls-2" d="m7440.32,959.23v9h-17.71v49.86h-10.95v-49.86h-17.79v-9h46.45Z"/><path class="cls-2" d="m7500.56,988.66c0,4.31-.72,8.31-2.16,11.99-1.44,3.68-3.46,6.86-6.07,9.55s-5.74,4.78-9.4,6.29c-3.66,1.51-7.72,2.26-12.17,2.26s-8.51-.75-12.19-2.26c-3.68-1.51-6.82-3.6-9.44-6.29s-4.65-5.87-6.09-9.55c-1.44-3.68-2.16-7.67-2.16-11.99s.72-8.31,2.16-11.99,3.47-6.86,6.09-9.55,5.77-4.78,9.44-6.29c3.68-1.51,7.74-2.26,12.19-2.26s8.51.76,12.17,2.28c3.66,1.52,6.8,3.62,9.4,6.29,2.61,2.67,4.63,5.85,6.07,9.53s2.16,7.67,2.16,11.99Zm-11.23,0c0-3.23-.43-6.13-1.28-8.69-.85-2.56-2.08-4.74-3.68-6.53s-3.55-3.16-5.84-4.11c-2.29-.95-4.88-1.42-7.75-1.42s-5.47.48-7.77,1.42c-2.31.95-4.27,2.32-5.88,4.11-1.62,1.79-2.86,3.97-3.72,6.53-.87,2.56-1.3,5.46-1.3,8.69s.43,6.13,1.3,8.69c.87,2.56,2.11,4.74,3.72,6.51,1.61,1.78,3.57,3.14,5.88,4.09,2.31.95,4.9,1.42,7.77,1.42s5.46-.47,7.75-1.42c2.29-.95,4.24-2.31,5.84-4.09s2.83-3.95,3.68-6.51c.86-2.56,1.28-5.46,1.28-8.69Z"/><path class="cls-2" d="m7503.74,959.23h9.2c.95,0,1.74.22,2.38.67.64.45,1.06,1.05,1.28,1.81l10.01,35.21c.24.87.47,1.81.67,2.83.2,1.02.4,2.1.59,3.24.22-1.14.45-2.22.71-3.24s.54-1.96.83-2.83l11.56-35.21c.22-.62.64-1.19,1.28-1.71.64-.52,1.42-.77,2.34-.77h3.22c.95,0,1.74.22,2.36.67s1.06,1.05,1.3,1.81l11.48,35.21c.6,1.74,1.11,3.66,1.55,5.78.19-1.06.39-2.08.59-3.05.2-.98.41-1.89.63-2.73l10.01-35.21c.19-.68.61-1.26,1.26-1.75.65-.49,1.44-.73,2.36-.73h8.59l-18.28,58.86h-9.89l-12.86-40.22c-.16-.52-.33-1.07-.51-1.67-.18-.6-.35-1.23-.51-1.91-.16.68-.33,1.32-.51,1.91-.18.6-.35,1.15-.51,1.67l-12.98,40.22h-9.89l-18.28-58.86Z"/><path class="cls-2" d="m7620.56,995.22v22.88h-10.95v-22.88l-21.45-35.98h9.65c.95,0,1.7.23,2.26.69.56.46,1.02,1.04,1.4,1.75l10.79,19.66c.62,1.17,1.17,2.27,1.63,3.32.46,1.04.88,2.07,1.26,3.07.35-1.03.75-2.07,1.2-3.11.45-1.04.98-2.14,1.61-3.28l10.71-19.66c.3-.6.75-1.15,1.34-1.67.6-.52,1.36-.77,2.28-.77h9.69l-21.41,35.98Z"/><path class="cls-2" d="m7674.7,997.37v20.72h-10.95v-58.86h19.17c3.93,0,7.34.46,10.22,1.38,2.88.92,5.25,2.21,7.12,3.87,1.87,1.66,3.26,3.64,4.15,5.94.9,2.31,1.34,4.83,1.34,7.57s-.48,5.46-1.43,7.84c-.95,2.38-2.38,4.42-4.27,6.13-1.9,1.71-4.27,3.04-7.12,3.99-2.85.95-6.19,1.42-10.01,1.42h-8.22Zm0-8.55h8.22c2.01,0,3.76-.25,5.25-.75,1.49-.5,2.73-1.22,3.71-2.16.98-.94,1.71-2.08,2.2-3.42s.73-2.84.73-4.5-.25-3-.73-4.27c-.49-1.28-1.22-2.36-2.2-3.26-.98-.9-2.21-1.58-3.71-2.06-1.49-.47-3.24-.71-5.25-.71h-8.22v21.13Z"/><path class="cls-2" d="m7725.58,995.09v23h-10.95v-58.86h17.95c4.02,0,7.46.41,10.32,1.24,2.86.83,5.21,1.99,7.04,3.48,1.83,1.49,3.18,3.28,4.03,5.35.86,2.08,1.28,4.36,1.28,6.86,0,1.98-.29,3.85-.88,5.62-.58,1.76-1.43,3.37-2.52,4.8-1.1,1.44-2.46,2.7-4.07,3.79-1.61,1.09-3.45,1.95-5.52,2.6,1.38.79,2.58,1.91,3.58,3.38l14.74,21.74h-9.85c-.95,0-1.76-.19-2.42-.57-.67-.38-1.23-.92-1.69-1.63l-12.37-18.85c-.46-.71-.97-1.21-1.53-1.51-.56-.3-1.38-.45-2.46-.45h-4.68Zm0-7.86h6.84c2.06,0,3.86-.26,5.39-.77,1.53-.52,2.79-1.23,3.79-2.14.99-.91,1.73-1.99,2.22-3.24.49-1.25.73-2.62.73-4.11,0-2.98-.98-5.28-2.95-6.88-1.97-1.6-4.97-2.4-9.02-2.4h-7v19.54Z"/><path class="cls-2" d="m7822.1,988.66c0,4.31-.72,8.31-2.16,11.99-1.44,3.68-3.46,6.86-6.06,9.55s-5.74,4.78-9.4,6.29c-3.66,1.51-7.72,2.26-12.17,2.26s-8.51-.75-12.19-2.26c-3.68-1.51-6.83-3.6-9.44-6.29-2.62-2.69-4.65-5.87-6.09-9.55-1.44-3.68-2.16-7.67-2.16-11.99s.72-8.31,2.16-11.99c1.44-3.68,3.47-6.86,6.09-9.55,2.62-2.69,5.77-4.78,9.44-6.29,3.68-1.51,7.74-2.26,12.19-2.26s8.51.76,12.17,2.28c3.66,1.52,6.8,3.62,9.4,6.29,2.61,2.67,4.63,5.85,6.06,9.53,1.44,3.68,2.16,7.67,2.16,11.99Zm-11.24,0c0-3.23-.43-6.13-1.28-8.69-.85-2.56-2.08-4.74-3.68-6.53s-3.55-3.16-5.84-4.11c-2.29-.95-4.88-1.42-7.75-1.42s-5.47.48-7.78,1.42c-2.31.95-4.27,2.32-5.88,4.11-1.62,1.79-2.86,3.97-3.72,6.53-.87,2.56-1.3,5.46-1.3,8.69s.43,6.13,1.3,8.69c.87,2.56,2.11,4.74,3.72,6.51,1.61,1.78,3.57,3.14,5.88,4.09,2.31.95,4.9,1.42,7.78,1.42s5.46-.47,7.75-1.42c2.29-.95,4.24-2.31,5.84-4.09s2.83-3.95,3.68-6.51c.86-2.56,1.28-5.46,1.28-8.69Z"/><path class="cls-2" d="m7882.99,988.66c0,4.31-.72,8.28-2.16,11.89-1.44,3.61-3.46,6.72-6.07,9.32-2.6,2.61-5.74,4.63-9.4,6.07-3.66,1.44-7.72,2.16-12.17,2.16h-22.47v-58.86h22.47c4.45,0,8.51.73,12.17,2.18,3.66,1.45,6.8,3.47,9.4,6.07,2.6,2.59,4.63,5.69,6.07,9.3,1.44,3.61,2.16,7.57,2.16,11.89Zm-11.19,0c0-3.23-.43-6.13-1.3-8.69s-2.1-4.74-3.7-6.51c-1.6-1.78-3.55-3.14-5.84-4.09-2.29-.95-4.88-1.42-7.75-1.42h-11.44v41.44h11.44c2.88,0,5.46-.47,7.75-1.42,2.29-.95,4.24-2.31,5.84-4.09,1.6-1.78,2.83-3.95,3.7-6.51s1.3-5.46,1.3-8.69Z"/><path class="cls-2" d="m7915.27,1009.26c2.12,0,4.01-.35,5.68-1.06,1.67-.71,3.08-1.7,4.23-2.97,1.15-1.27,2.04-2.82,2.65-4.64.61-1.82.92-3.85.92-6.11v-35.25h10.95v35.25c0,3.5-.56,6.74-1.69,9.71-1.13,2.97-2.75,5.54-4.86,7.69-2.12,2.16-4.68,3.84-7.69,5.05-3.01,1.21-6.41,1.81-10.18,1.81s-7.16-.6-10.18-1.81c-3.01-1.21-5.57-2.89-7.67-5.05-2.1-2.16-3.72-4.72-4.84-7.69-1.13-2.97-1.69-6.21-1.69-9.71v-35.25h10.95v35.21c0,2.25.3,4.29.92,6.11.61,1.82,1.49,3.37,2.62,4.66,1.14,1.29,2.54,2.29,4.21,2.99,1.67.71,3.56,1.06,5.68,1.06Z"/><path class="cls-2" d="m7962.17,983.9h2.56c1.03,0,1.88-.14,2.56-.43.68-.29,1.26-.74,1.75-1.36l16.24-20.56c.68-.87,1.39-1.47,2.14-1.81.75-.34,1.69-.51,2.83-.51h9.44l-19.82,24.46c-.62.76-1.22,1.4-1.79,1.91-.57.52-1.18.94-1.83,1.26.9.33,1.7.79,2.42,1.38.72.6,1.42,1.36,2.1,2.28l20.44,27.56h-9.69c-1.3,0-2.27-.18-2.91-.55-.64-.37-1.17-.9-1.61-1.61l-16.65-21.74c-.54-.71-1.15-1.21-1.83-1.53-.68-.31-1.64-.47-2.89-.47h-3.46v25.89h-10.95v-58.9h10.95v24.71Z"/><path class="cls-2" d="m8049.15,959.23v9h-17.71v49.86h-10.95v-49.86h-17.79v-9h46.44Z"/><path class="cls-2" d="m7163.36,1056.93v9h-17.71v49.86h-10.95v-49.86h-17.79v-9h46.45Z"/><path class="cls-2" d="m7181.64,1092.79v23h-10.95v-58.86h17.95c4.02,0,7.46.41,10.32,1.24,2.86.83,5.21,1.99,7.04,3.48,1.83,1.49,3.18,3.28,4.03,5.35.86,2.08,1.28,4.36,1.28,6.86,0,1.98-.29,3.85-.88,5.62-.58,1.76-1.43,3.37-2.52,4.8-1.1,1.44-2.46,2.7-4.07,3.79-1.61,1.09-3.45,1.95-5.52,2.6,1.38.79,2.58,1.91,3.58,3.38l14.74,21.74h-9.85c-.95,0-1.76-.19-2.42-.57-.67-.38-1.23-.92-1.69-1.63l-12.37-18.85c-.46-.71-.97-1.21-1.53-1.51-.56-.3-1.38-.45-2.46-.45h-4.68Zm0-7.86h6.84c2.06,0,3.86-.26,5.39-.77,1.53-.52,2.79-1.23,3.79-2.14.99-.91,1.73-1.99,2.22-3.24.49-1.25.73-2.62.73-4.11,0-2.98-.98-5.28-2.95-6.88-1.97-1.6-4.97-2.4-9.02-2.4h-7v19.54Z"/><path class="cls-2" d="m7275.38,1115.79h-8.47c-.95,0-1.73-.24-2.34-.71-.61-.47-1.05-1.06-1.32-1.77l-4.4-12.01h-24.38l-4.4,12.01c-.22.62-.65,1.19-1.28,1.71-.64.52-1.42.77-2.34.77h-8.51l23.12-58.86h11.19l23.12,58.86Zm-38.1-22.23h18.76l-7.16-19.58c-.33-.87-.69-1.89-1.08-3.07-.39-1.18-.78-2.46-1.16-3.85-.38,1.38-.75,2.67-1.12,3.87-.37,1.19-.73,2.24-1.08,3.13l-7.16,19.5Z"/><path class="cls-2" d="m7318.57,1056.93v8.71h-26.09v17.42h22.02v8.75h-22.02v23.98h-11.03v-58.86h37.12Z"/><path class="cls-2" d="m7339.49,1115.79h-10.99v-58.86h10.99v58.86Z"/><path class="cls-2" d="m7404.46,1115.79h-8.47c-.95,0-1.73-.24-2.34-.71-.61-.47-1.05-1.06-1.32-1.77l-4.4-12.01h-24.38l-4.4,12.01c-.22.62-.64,1.19-1.28,1.71-.64.52-1.42.77-2.34.77h-8.51l23.12-58.86h11.19l23.12,58.86Zm-38.1-22.23h18.77l-7.16-19.58c-.33-.87-.69-1.89-1.08-3.07-.39-1.18-.78-2.46-1.16-3.85-.38,1.38-.75,2.67-1.12,3.87-.37,1.19-.73,2.24-1.08,3.13l-7.16,19.5Z"/><path class="cls-2" d="m7437.55,1095.07v20.72h-10.95v-58.86h19.17c3.93,0,7.34.46,10.22,1.38,2.88.92,5.25,2.21,7.12,3.87s3.26,3.64,4.15,5.94c.9,2.31,1.34,4.83,1.34,7.57s-.47,5.46-1.42,7.84c-.95,2.38-2.38,4.42-4.27,6.13-1.9,1.71-4.27,3.04-7.12,3.99-2.85.95-6.19,1.42-10.01,1.42h-8.22Zm0-8.55h8.22c2.01,0,3.76-.25,5.25-.75,1.49-.5,2.73-1.22,3.7-2.16.98-.94,1.71-2.08,2.2-3.42s.73-2.84.73-4.5-.25-3-.73-4.27c-.49-1.28-1.22-2.36-2.2-3.26s-2.21-1.58-3.7-2.06c-1.49-.47-3.24-.71-5.25-.71h-8.22v21.13Z"/><path class="cls-2" d="m7533.58,1086.36c0,4.31-.72,8.31-2.16,11.99-1.44,3.68-3.46,6.86-6.06,9.55s-5.74,4.78-9.4,6.29c-3.66,1.51-7.72,2.26-12.17,2.26s-8.51-.75-12.19-2.26c-3.68-1.51-6.83-3.6-9.44-6.29-2.62-2.69-4.65-5.87-6.09-9.55-1.44-3.68-2.16-7.67-2.16-11.99s.72-8.31,2.16-11.99c1.44-3.68,3.47-6.86,6.09-9.55,2.62-2.69,5.77-4.78,9.44-6.29,3.68-1.51,7.74-2.26,12.19-2.26s8.51.76,12.17,2.28c3.66,1.52,6.8,3.62,9.4,6.29,2.61,2.67,4.63,5.85,6.06,9.53,1.44,3.68,2.16,7.67,2.16,11.99Zm-11.24,0c0-3.23-.43-6.13-1.28-8.69-.85-2.56-2.08-4.74-3.68-6.53s-3.55-3.16-5.84-4.11c-2.29-.95-4.88-1.42-7.75-1.42s-5.47.48-7.78,1.42c-2.31.95-4.27,2.32-5.88,4.11-1.62,1.79-2.86,3.97-3.72,6.53-.87,2.56-1.3,5.46-1.3,8.69s.43,6.13,1.3,8.69c.87,2.56,2.11,4.74,3.72,6.51,1.61,1.78,3.57,3.14,5.88,4.09,2.31.95,4.9,1.42,7.78,1.42s5.46-.47,7.75-1.42c2.29-.95,4.24-2.31,5.84-4.09s2.83-3.95,3.68-6.51c.86-2.56,1.28-5.46,1.28-8.69Z"/><path class="cls-2" d="m7594.47,1086.36c0,4.31-.72,8.28-2.16,11.89-1.44,3.61-3.46,6.72-6.07,9.32-2.6,2.61-5.74,4.63-9.4,6.07-3.66,1.44-7.72,2.16-12.17,2.16h-22.47v-58.86h22.47c4.45,0,8.51.73,12.17,2.18,3.66,1.45,6.8,3.47,9.4,6.07,2.6,2.59,4.63,5.69,6.07,9.3,1.44,3.61,2.16,7.57,2.16,11.89Zm-11.19,0c0-3.23-.43-6.13-1.3-8.69s-2.1-4.74-3.7-6.51c-1.6-1.78-3.55-3.14-5.84-4.09-2.29-.95-4.88-1.42-7.75-1.42h-11.44v41.44h11.44c2.88,0,5.46-.47,7.75-1.42,2.29-.95,4.24-2.31,5.84-4.09,1.6-1.78,2.83-3.95,3.7-6.51s1.3-5.46,1.3-8.69Z"/><path class="cls-2" d="m7660.25,1056.93v9h-17.71v49.86h-10.95v-49.86h-17.79v-9h46.45Z"/><path class="cls-2" d="m7661.76,1056.93h9.2c.95,0,1.74.22,2.38.67.64.45,1.06,1.05,1.28,1.81l10.01,35.21c.24.87.47,1.81.67,2.83s.4,2.1.59,3.24c.22-1.14.46-2.22.71-3.24s.54-1.96.83-2.83l11.56-35.21c.22-.62.64-1.19,1.28-1.71.64-.52,1.42-.77,2.34-.77h3.22c.95,0,1.74.22,2.36.67.62.45,1.06,1.05,1.3,1.81l11.48,35.21c.6,1.74,1.11,3.66,1.55,5.78.19-1.06.39-2.08.59-3.05.2-.98.41-1.89.63-2.73l10.01-35.21c.19-.68.61-1.26,1.26-1.75.65-.49,1.44-.73,2.36-.73h8.59l-18.28,58.86h-9.89l-12.86-40.22c-.16-.52-.33-1.07-.51-1.67-.18-.6-.35-1.23-.51-1.91-.16.68-.33,1.32-.51,1.91-.18.6-.35,1.15-.51,1.67l-12.99,40.22h-9.89l-18.28-58.86Z"/><path class="cls-2" d="m7808.87,1086.36c0,4.31-.72,8.31-2.16,11.99-1.44,3.68-3.46,6.86-6.06,9.55s-5.74,4.78-9.4,6.29c-3.66,1.51-7.72,2.26-12.17,2.26s-8.51-.75-12.19-2.26c-3.68-1.51-6.83-3.6-9.44-6.29-2.62-2.69-4.65-5.87-6.09-9.55-1.44-3.68-2.16-7.67-2.16-11.99s.72-8.31,2.16-11.99c1.44-3.68,3.47-6.86,6.09-9.55,2.62-2.69,5.77-4.78,9.44-6.29,3.68-1.51,7.74-2.26,12.19-2.26s8.51.76,12.17,2.28c3.66,1.52,6.8,3.62,9.4,6.29,2.61,2.67,4.63,5.85,6.06,9.53,1.44,3.68,2.16,7.67,2.16,11.99Zm-11.24,0c0-3.23-.43-6.13-1.28-8.69-.85-2.56-2.08-4.74-3.68-6.53s-3.55-3.16-5.84-4.11c-2.29-.95-4.88-1.42-7.75-1.42s-5.47.48-7.78,1.42c-2.31.95-4.27,2.32-5.88,4.11-1.62,1.79-2.86,3.97-3.72,6.53-.87,2.56-1.3,5.46-1.3,8.69s.43,6.13,1.3,8.69c.87,2.56,2.11,4.74,3.72,6.51,1.61,1.78,3.57,3.14,5.88,4.09,2.31.95,4.9,1.42,7.78,1.42s5.46-.47,7.75-1.42c2.29-.95,4.24-2.31,5.84-4.09s2.83-3.95,3.68-6.51c.86-2.56,1.28-5.46,1.28-8.69Zm-2.85-43.47l-12.05,8.79c-.3.22-.58.39-.83.53-.26.14-.52.24-.77.33-.26.08-.53.14-.81.16-.28.03-.62.04-1,.04h-7.9l7.98-8.22c.33-.33.63-.6.92-.81.29-.22.58-.39.88-.51.3-.12.64-.2,1.02-.24.38-.04.84-.06,1.38-.06h11.2Z"/><path class="cls-2" d="m7841.19,1094.86c0,3.31-.41,6.3-1.22,8.96s-2.03,4.93-3.64,6.8c-1.61,1.87-3.63,3.31-6.04,4.31-2.42,1-5.22,1.51-8.43,1.51-1.46,0-2.9-.09-4.31-.26-1.41-.18-2.89-.45-4.44-.83l.57-6.51c.05-.6.28-1.08.67-1.44.39-.37.97-.55,1.73-.55.46,0,1.06.1,1.81.28.75.19,1.69.29,2.83.29,1.55,0,2.92-.22,4.11-.67s2.19-1.16,2.99-2.14c.8-.98,1.4-2.25,1.81-3.81.41-1.56.61-3.45.61-5.68v-38.18h10.95v37.94Z"/><path class="cls-2" d="m7920.52,1115.79h-8.47c-.95,0-1.73-.24-2.34-.71-.61-.47-1.05-1.06-1.32-1.77l-4.4-12.01h-24.38l-4.4,12.01c-.22.62-.65,1.19-1.28,1.71-.64.52-1.42.77-2.34.77h-8.51l23.12-58.86h11.19l23.12,58.86Zm-38.1-22.23h18.76l-7.16-19.58c-.33-.87-.69-1.89-1.08-3.07-.39-1.18-.78-2.46-1.16-3.85-.38,1.38-.75,2.67-1.12,3.87-.37,1.19-.73,2.24-1.08,3.13l-7.16,19.5Z"/><path class="cls-2" d="m7978.85,1086.36c0,4.31-.72,8.28-2.16,11.89-1.44,3.61-3.46,6.72-6.06,9.32-2.61,2.61-5.74,4.63-9.4,6.07-3.66,1.44-7.72,2.16-12.17,2.16h-22.47v-58.86h22.47c4.45,0,8.51.73,12.17,2.18,3.66,1.45,6.8,3.47,9.4,6.07,2.6,2.59,4.63,5.69,6.06,9.3,1.44,3.61,2.16,7.57,2.16,11.89Zm-11.2,0c0-3.23-.43-6.13-1.3-8.69-.87-2.56-2.1-4.74-3.7-6.51-1.6-1.78-3.55-3.14-5.84-4.09-2.29-.95-4.88-1.42-7.75-1.42h-11.44v41.44h11.44c2.88,0,5.46-.47,7.75-1.42,2.29-.95,4.24-2.31,5.84-4.09,1.6-1.78,2.83-3.95,3.7-6.51.87-2.56,1.3-5.46,1.3-8.69Z"/><path class="cls-2" d="m7998.76,1092.79v23h-10.95v-58.86h17.95c4.02,0,7.46.41,10.32,1.24,2.86.83,5.21,1.99,7.04,3.48,1.83,1.49,3.17,3.28,4.03,5.35.85,2.08,1.28,4.36,1.28,6.86,0,1.98-.29,3.85-.88,5.62-.58,1.76-1.42,3.37-2.52,4.8-1.1,1.44-2.46,2.7-4.07,3.79-1.62,1.09-3.45,1.95-5.52,2.6,1.38.79,2.58,1.91,3.58,3.38l14.74,21.74h-9.85c-.95,0-1.76-.19-2.42-.57-.67-.38-1.23-.92-1.69-1.63l-12.38-18.85c-.46-.71-.97-1.21-1.53-1.51-.56-.3-1.38-.45-2.46-.45h-4.68Zm0-7.86h6.84c2.06,0,3.86-.26,5.39-.77,1.53-.52,2.79-1.23,3.79-2.14.99-.91,1.73-1.99,2.22-3.24.49-1.25.73-2.62.73-4.11,0-2.98-.98-5.28-2.95-6.88-1.97-1.6-4.97-2.4-9.02-2.4h-7v19.54Z"/><path class="cls-2" d="m8077.89,1056.93v8.71h-26.09v16.32h20.56v8.43h-20.56v16.65h26.09v8.75h-37.12v-58.86h37.12Z"/><path class="cls-2" d="m8118.92,1067.63c-.3.6-.65,1.02-1.04,1.26-.39.24-.86.37-1.4.37s-1.15-.21-1.83-.63c-.68-.42-1.48-.89-2.4-1.4-.92-.52-2-.98-3.24-1.4-1.24-.42-2.69-.63-4.38-.63-1.52,0-2.84.18-3.97.55s-2.08.88-2.85,1.53-1.35,1.43-1.73,2.34c-.38.91-.57,1.91-.57,2.99,0,1.38.39,2.54,1.16,3.46.77.92,1.8,1.71,3.07,2.36,1.28.65,2.73,1.24,4.36,1.75,1.63.52,3.29,1.07,4.99,1.65,1.7.58,3.36,1.26,4.99,2.04,1.63.77,3.08,1.75,4.36,2.93,1.27,1.18,2.3,2.63,3.07,4.33.77,1.71,1.16,3.79,1.16,6.23,0,2.66-.46,5.15-1.36,7.47s-2.24,4.34-3.99,6.06c-1.75,1.72-3.89,3.08-6.41,4.07-2.52.99-5.41,1.49-8.67,1.49-1.87,0-3.72-.18-5.54-.55-1.82-.37-3.56-.89-5.23-1.57-1.67-.68-3.23-1.49-4.68-2.44-1.45-.95-2.75-2.01-3.89-3.18l3.17-5.25c.3-.38.66-.7,1.08-.96.42-.26.89-.39,1.4-.39.68,0,1.41.28,2.2.83.79.56,1.72,1.17,2.79,1.85,1.07.68,2.33,1.3,3.79,1.85,1.45.56,3.2.83,5.23.83,3.12,0,5.54-.74,7.25-2.22,1.71-1.48,2.56-3.6,2.56-6.37,0-1.55-.39-2.81-1.16-3.79-.77-.98-1.8-1.8-3.07-2.46-1.28-.67-2.73-1.23-4.36-1.69-1.63-.46-3.28-.96-4.97-1.51-1.68-.54-3.34-1.19-4.97-1.95-1.63-.76-3.08-1.75-4.36-2.97s-2.3-2.75-3.07-4.58c-.77-1.83-1.16-4.09-1.16-6.78,0-2.14.43-4.23,1.28-6.27.86-2.04,2.1-3.84,3.75-5.41,1.64-1.57,3.66-2.84,6.04-3.79,2.39-.95,5.12-1.42,8.18-1.42,3.47,0,6.68.54,9.61,1.63,2.93,1.09,5.43,2.61,7.49,4.56l-2.69,5.17Z"/></g><path class="cls-3" d="m6669.45,763.57v-197.44l170.99,98.72-170.99,98.72Zm10-180.12v162.8l140.99-81.4-140.99-81.4Z"/><path class="cls-3" d="m2657.62,272.58h-418.84c-62.66,0-113.65,50.98-113.65,113.65v129.72h45.34v-129.72c0-37.67,30.63-68.3,68.3-68.3h418.84c37.67,0,68.3,30.63,68.3,68.3v204.24c0,28.98-18.14,53.81-43.66,63.72h-45.4l-8.22,49.93-7.85,50.75-53.69-50.75-45.36-45.36h-68.67l.02.02h-12.42v43.11c0,.74-.02,1.49-.05,2.23h60.45l151.34,143.01,22.33-144.3c54.58-8.29,96.53-55.52,96.53-112.36v-204.24c0-62.66-50.98-113.65-113.65-113.65Z"/><path class="cls-3" d="m2394.08,485h-285.77c-42.75,0-77.54,34.79-77.54,77.54v139.35c0,38.78,28.62,71.01,65.86,76.67l15.24,98.45,103.26-97.58h178.96c42.01,0,76.32-33.59,77.5-75.31.02-.74.04-1.49.04-2.23v-139.35c0-42.75-34.79-77.54-77.54-77.54Zm0,263.48h-193.07l-30.94,30.94-36.64,34.62-5.35-34.62-5.6-34.06h-30.98c-17.41-6.77-29.78-23.71-29.78-43.48v-139.35c0-25.7,20.89-46.59,46.59-46.59h285.77c25.7,0,46.59,20.89,46.59,46.59v139.35c0,.74-.02,1.49-.05,2.23-1.16,24.67-21.58,44.36-46.54,44.36Z"/><path class="cls-3" d="m2394.08,485h-285.77c-42.75,0-77.54,34.79-77.54,77.54v139.35c0,38.78,28.62,71.01,65.86,76.67l15.24,98.45,103.26-97.58h178.96c42.01,0,76.32-33.59,77.5-75.31.02-.74.04-1.49.04-2.23v-139.35c0-42.75-34.79-77.54-77.54-77.54Zm0,263.48h-193.07l-30.94,30.94-36.64,34.62-5.35-34.62-5.6-34.06h-30.98c-17.41-6.77-29.78-23.71-29.78-43.48v-139.35c0-25.7,20.89-46.59,46.59-46.59h285.77c25.7,0,46.59,20.89,46.59,46.59v139.35c0,.74-.02,1.49-.05,2.23-1.16,24.67-21.58,44.36-46.54,44.36Z"/><g><path class="cls-3" d="m7941.47,416.51c-2.77-46.93-41.83-84.26-89.44-84.26h-215c3.36,7.91,5.86,16.29,7.34,25h207.66c35.63,0,64.61,28.98,64.61,64.61v227.74c0,35.63-28.98,64.61-64.61,64.61h-307.4c-.97,0-1.93-.02-2.89-.06-34.29-1.52-61.72-29.89-61.72-64.55v-173.21c-9.15-4.85-17.55-10.93-25-18v191.21c0,48.44,38.63,88.02,86.7,89.56.97.03,1.94.05,2.91.05h307.4c16.48,0,31.93-4.47,45.2-12.26,2.72-1.6,5.35-3.33,7.88-5.2,7.52-5.54,14.14-12.23,19.6-19.8,9.29-12.85,15.25-28.25,16.62-44.93.21-2.44.31-4.92.31-7.42v-227.74c0-1.8-.05-3.58-.17-5.35Z"/><polygon class="cls-3" points="8125.98 518.3 8125.98 726.95 7892.36 726.95 7892.36 701.95 8100.98 701.95 8100.98 528.65 8013.84 441.51 7935.27 441.51 7935.27 416.51 8024.19 416.51 8125.98 518.3"/><polygon class="cls-3" points="8077.25 540.59 8077.25 579.65 8062.68 579.65 8062.68 546.62 8011.89 495.83 7966.1 495.83 7966.1 481.26 8017.92 481.26 8077.25 540.59"/><path class="cls-3" d="m7669.68,357.25c-1.2-8.61-3.2-16.97-5.92-25-18.46-54.57-70.15-93.96-130.87-93.96-76.16,0-138.12,61.96-138.12,138.12,0,47.3,23.89,89.12,60.25,114.02,7.8,5.34,16.17,9.91,25,13.58,16.29,6.78,34.15,10.52,52.87,10.52,76.15,0,138.11-61.96,138.11-138.12,0-6.5-.45-12.9-1.32-19.16Zm-136.79,132.28c-19.09,0-37.08-4.75-52.87-13.14-9.15-4.85-17.55-10.93-25-18-21.7-20.63-35.25-49.75-35.25-81.98,0-62.37,50.74-113.12,113.12-113.12,46.71,0,86.9,28.47,104.14,68.96,3.36,7.91,5.86,16.29,7.34,25,1.07,6.23,1.63,12.63,1.63,19.16,0,62.37-50.74,113.12-113.11,113.12Z"/><path class="cls-3" d="m7709.91,714.21h-25.39c.86,4.03,1.31,8.21,1.31,12.5s-.45,8.47-1.31,12.5c-5.77,27.11-29.89,47.51-58.7,47.51s-52.93-20.4-58.7-47.51c-.86-4.03-1.31-8.21-1.31-12.5s.45-8.47,1.31-12.5h-22.49c-.97,0-1.93-.02-2.89-.06-.61,4.1-.93,8.29-.93,12.56s.31,8.38.91,12.45c6.04,40.99,41.46,72.56,84.1,72.56s78.03-31.54,84.09-72.51c.61-4.08.92-8.26.92-12.5s-.31-8.42-.92-12.5Z"/><path class="cls-3" d="m8071.3,701.95h-26.67c3.44,7.55,5.35,15.94,5.35,24.76v.24c-.13,32.98-27,59.77-60.01,59.77s-59.88-26.79-60.01-59.77v-.24c0-8.82,1.91-17.21,5.35-24.76h-10.6c9.29-12.85,15.25-28.25,16.62-44.93-15.41,10.79-27.09,26.54-32.69,44.93-1.93,6.32-3.14,12.95-3.53,19.8-.1,1.64-.15,3.29-.15,4.96v.24c.13,46.76,38.21,84.77,85.01,84.77s84.88-38.01,85.01-84.77v-.24c0-8.61-1.29-16.93-3.68-24.76Z"/><path class="cls-3" d="m7407.27,502.03v33.7h-248.93c-9.31,0-16.85-7.54-16.85-16.85,0-4.66,1.89-8.87,4.93-11.92,3.05-3.04,7.26-4.93,11.92-4.93h248.93Z"/><path class="cls-3" d="m7418.77,571.43v33.7h-192.26c-9.3,0-16.85-7.54-16.85-16.85,0-4.65,1.89-8.86,4.94-11.91,3.05-3.05,7.26-4.94,11.91-4.94h192.26Z"/><path class="cls-3" d="m7371.65,640.83v33.7h-239.74c-9.31,0-16.85-7.55-16.85-16.85,0-4.65,1.89-8.87,4.93-11.92,3.05-3.05,7.26-4.93,11.92-4.93h239.74Z"/><polygon class="cls-3" points="7520.11 425.88 7477.26 383.03 7494.94 365.36 7520.11 390.52 7574.84 335.78 7592.52 353.46 7520.11 425.88"/><rect class="cls-3" x="7966.1" y="481.26" width="16.15" height="98.39"/><rect class="cls-3" x="7966.1" y="563.3" width="111.15" height="16.35"/></g><g><path class="cls-3" d="m6139.53,800.31h-90.57v-35.76h90.57c44.71,0,81.09-36.37,81.09-81.08v-181.87c0-44.71-36.38-81.08-81.09-81.08h-512c-44.71,0-81.09,36.37-81.09,81.08v181.87c0,44.71,36.38,81.08,81.09,81.08h101.52v35.76h-101.52c-64.43,0-116.84-52.41-116.84-116.84v-181.87c0-64.43,52.42-116.84,116.84-116.84h512c64.43,0,116.84,52.41,116.84,116.84v181.87c0,64.43-52.42,116.84-116.84,116.84Z"/><path class="cls-3" d="m6146.82,402.64h-35.76v-133.65c0-44.71-36.38-81.08-81.1-81.08h-283.56c-44.71,0-81.09,36.37-81.09,81.08v133.65h-35.76v-133.65c0-64.43,52.42-116.84,116.84-116.84h283.56c64.43,0,116.86,52.41,116.86,116.84v133.65Z"/><path class="cls-3" d="m6066.84,904.76h-355.66v-274.59h355.66v274.59Zm-319.91-35.76h284.15v-203.08h-284.15v203.08Z"/><path class="cls-3" d="m6128.94,657.9h-484.98c-9.87,0-17.88-8.01-17.88-17.88s8.01-17.88,17.88-17.88h484.98c9.87,0,17.88,8.01,17.88,17.88s-8.01,17.88-17.88,17.88Z"/><path class="cls-3" d="m6131.49,528.98h-138.41c-9.87,0-17.88-8.01-17.88-17.88s8.01-17.88,17.88-17.88h138.41c9.87,0,17.88,8.01,17.88,17.88s-8.01,17.88-17.88,17.88Z"/><path class="cls-3" d="m5957.39,741.52h-138.41c-9.87,0-17.88-8.01-17.88-17.88s8.01-17.88,17.88-17.88h138.41c9.87,0,17.88,8.01,17.88,17.88s-8.01,17.88-17.88,17.88Z"/><path class="cls-3" d="m5958.21,811.64h-28.42c-9.87,0-17.88-8.01-17.88-17.88s8.01-17.88,17.88-17.88h28.42c9.87,0,17.88,8.01,17.88,17.88s-8.01,17.88-17.88,17.88Z"/><path class="cls-3" d="m5886.45,811.64h-67.47c-9.87,0-17.88-8.01-17.88-17.88s8.01-17.88,17.88-17.88h67.47c9.87,0,17.88,8.01,17.88,17.88s-8.01,17.88-17.88,17.88Z"/><path class="cls-3" d="m5945.61,528.98h-46.02c-9.87,0-17.88-8.01-17.88-17.88s8.01-17.88,17.88-17.88h46.02c9.87,0,17.88,8.01,17.88,17.88s-8.01,17.88-17.88,17.88Z"/></g></g></svg>