<?xml version="1.0" encoding="UTF-8"?><svg id="Warstwa_2" xmlns="http://www.w3.org/2000/svg" viewBox="0 0 581.67 581.67"><defs><style>.cls-1{fill:#fff;}</style></defs><g id="portfolio"><path class="cls-1" d="m426.79,197.9l-129.71,74.89c-3.87,2.24-8.63,2.24-12.5,0l-129.71-74.89h271.92Z"/><path class="cls-1" d="m460.94,210.4v160.87c0,6.91-5.6,12.5-12.5,12.5H133.22c-6.9,0-12.5-5.59-12.5-12.5v-160.87c0-1.08.14-2.12.39-3.12l163.47,94.38c3.87,2.24,8.63,2.24,12.5,0l163.47-94.38c.25,1,.39,2.04.39,3.12Z"/><path class="cls-1" d="m290.83,0C130.21,0,0,130.21,0,290.84s130.21,290.83,290.83,290.83,290.84-130.21,290.84-290.83S451.45,0,290.83,0Zm195.11,396.27c0,6.91-5.6,12.5-12.5,12.5H108.22c-6.9,0-12.5-5.59-12.5-12.5v-210.87c0-6.9,5.6-12.5,12.5-12.5h365.22c6.9,0,12.5,5.6,12.5,12.5v210.87Z"/></g></svg>