<?xml version="1.0" encoding="UTF-8"?><svg id="Warstwa_2" xmlns="http://www.w3.org/2000/svg" viewBox="0 0 581.67 581.67"><defs><style>.cls-1{fill:#fff;}</style></defs><g id="portfolio"><polygon class="cls-1" points="236.74 181.89 236.74 294.72 187.27 301.89 187.27 181.89 236.74 181.89"/><polygon class="cls-1" points="306.1 181.89 306.1 284.66 251.74 292.54 251.74 181.89 306.1 181.89"/><polygon class="cls-1" points="372.19 181.89 372.19 275.08 321.1 282.49 321.1 181.89 372.19 181.89"/><polygon class="cls-1" points="439.93 181.89 439.93 265.26 387.19 272.91 387.19 181.89 439.93 181.89"/><path class="cls-1" d="m243.93,379.07c-17.87,0-32.4,14.53-32.4,32.4s14.53,32.39,32.4,32.39,32.39-14.53,32.39-32.39-14.53-32.4-32.39-32.4Zm0,0c-17.87,0-32.4,14.53-32.4,32.4s14.53,32.39,32.4,32.39,32.39-14.53,32.39-32.39-14.53-32.4-32.39-32.4ZM290.84,0C130.21,0,0,130.21,0,290.83s130.21,290.84,290.84,290.84,290.83-130.22,290.83-290.84S451.46,0,290.84,0Zm-46.91,458.86c-26.14,0-47.4-21.26-47.4-47.39s21.26-47.4,47.4-47.4,47.39,21.26,47.39,47.4-21.26,47.39-47.39,47.39Zm154.12,0c-26.14,0-47.4-21.26-47.4-47.39s21.26-47.4,47.4-47.4,47.39,21.26,47.39,47.4-21.26,47.39-47.39,47.39Zm66-103.28c-1.36,1.36-3.24,2.2-5.31,2.2H179.77c-4.14,0-7.5-3.36-7.5-7.5v-204.98c0-4.14-3.35-7.5-7.5-7.5h-41.84c-4.14,0-7.5-3.36-7.5-7.5,0-2.07.84-3.95,2.2-5.3,1.36-1.36,3.23-2.2,5.3-2.2h56.84c4.15,0,7.5,3.36,7.5,7.5v36.59h267.66v111.35l-267.66,38.81v18.23c0,4.14,3.36,7.5,7.5,7.5h263.97c4.15,0,7.5,3.35,7.5,7.5,0,2.07-.84,3.95-2.19,5.3Zm-66,23.49c-17.86,0-32.4,14.53-32.4,32.4s14.54,32.39,32.4,32.39,32.39-14.53,32.39-32.39-14.53-32.4-32.39-32.4Zm-154.12,0c-17.87,0-32.4,14.53-32.4,32.4s14.53,32.39,32.4,32.39,32.39-14.53,32.39-32.39-14.53-32.4-32.39-32.4Z"/></g></svg>