<?xml version="1.0" encoding="UTF-8"?><svg id="Warstwa_2" xmlns="http://www.w3.org/2000/svg" viewBox="0 0 581.67 581.67"><defs><style>.cls-1{fill:#fff;}</style></defs><g id="portfolio"><circle class="cls-1" cx="290.83" cy="241.97" r="82.49"/><path class="cls-1" d="m416.92,417.09c0,1.69-.03,3.4-.09,5.1h-251.99c-.06-1.7-.09-3.41-.09-5.1,0-43.36,19.96-83.13,53.73-107.8,18.06,19.4,43.82,31.55,72.35,31.55s54.29-12.15,72.35-31.55c33.78,24.67,53.74,64.45,53.74,107.8Z"/><path class="cls-1" d="m290.84,0C130.21,0,0,130.21,0,290.84s130.21,290.83,290.84,290.83,290.83-130.21,290.83-290.83S451.46,0,290.84,0Zm141.83,431.13l-.68,7.45H149.68l-.68-7.45c-.42-4.63-.63-9.35-.63-14.04,0-25.53,6.35-50.7,18.39-72.79,10.29-18.89,24.57-35.31,41.58-47.88-10.35-15.63-16.38-34.34-16.38-54.45,0-54.52,44.36-98.87,98.87-98.87s98.88,44.35,98.88,98.87c0,20.11-6.03,38.82-16.38,54.45,17.01,12.57,31.29,28.99,41.58,47.88,12.04,22.1,18.4,47.26,18.4,72.79,0,4.68-.22,9.41-.64,14.04Z"/></g></svg>