<svg xmlns="http://www.w3.org/2000/svg" viewBox="0 0 641.86 349.33"><defs><style>.cls-1{fill:#fffefe;}</style></defs><g id="Warstwa_2" data-name="Warstwa 2"><g id="Layer_3" data-name="Layer 3"><path class="cls-1" d="M641.86,349.33s-62.5-111.83-186.5-67.83c0,0,21,27,19.5,56.5a80.83,80.83,0,0,0-35.43-28.89l-.12-.05h0l-.93-.38c-.54-.22-1.08-.43-1.63-.63l-1.31-.47a75.18,75.18,0,0,0-9.42-2.7h0a145.21,145.21,0,0,0-22.73-3.29h-.09a80.11,80.11,0,0,0-10.8-.38h0c-15.68.37-44.7,4.08-96.75,18.55,0,0-69,16-136.5-6.25,0,0,5,13,29.25,32.75,0,0-252.1-70.36-173-327.75,0,0,88.5,233.5,270.5-18.5,0,0-3.4,40.57-19.07,72.62C297,59.4,432.51,9.82,552.05,123h0C599.73,165.69,635.87,235.87,641.86,349.33Z"/></g></g></svg>