<?xml version="1.0" encoding="UTF-8"?><svg id="Warstwa_2" xmlns="http://www.w3.org/2000/svg" viewBox="0 0 581.67 581.67"><defs><style>.cls-1{fill:#fff;}</style></defs><g id="portfolio"><polygon class="cls-1" points="416.86 267.15 353.85 328.57 368.72 415.29 290.83 374.35 212.95 415.29 227.83 328.57 164.81 267.15 251.89 254.49 290.83 175.59 329.78 254.49 416.86 267.15"/><path class="cls-1" d="m290.84,0C130.21,0,0,130.21,0,290.83s130.21,290.84,290.84,290.84,290.83-130.21,290.83-290.84S451.46,0,290.84,0Zm106.24,454.33l-106.25-55.86-106.24,55.86,20.29-118.31-85.95-83.78,118.78-17.26,53.12-107.64,53.13,107.64,118.78,17.26-85.95,83.78,20.29,118.31Z"/></g></svg>